<svg viewBox="0 0 16 18" fill="none" xmlns="http://www.w3.org/2000/svg">
<path d="M15 15V6.82842C15 6.29799 14.7794 5.80146 14.369 5.46531C13.2908 4.58195 11.0968 2.82622 9.3509 1.26565C8.5717 0.569171 7.3873 0.525171 6.5938 1.2053L1.69842 5.40135C1.25513 5.78131 1 6.33601 1 6.91986V15C1 16.1046 1.89543 17 3 17H3.5C4.60457 17 5.5 16.1046 5.5 15V13C5.5 11.8954 6.3954 11 7.5 11H8.5C9.6046 11 10.5 11.8954 10.5 13V15C10.5 16.1046 11.3954 17 12.5 17H13C14.1046 17 15 16.1046 15 15Z" stroke-width="1.25" stroke-linecap="round"/>
</svg>
