<svg width="37" height="36" viewBox="0 0 37 36" fill="none" xmlns="http://www.w3.org/2000/svg">
<g clip-path="url(#clip0_1_8962)">
<path d="M19.3493 18.5206C14.96 22.63 9.70309 23.517 9.11906 23.6053C8.2198 23.7386 7.32097 23.5191 6.59009 22.9778C5.85899 22.4363 5.37873 21.644 5.2462 20.7449C5.07931 19.6377 5.46936 18.5158 6.28807 17.7493C6.79117 17.2783 7.41566 16.9764 8.09934 16.8691C8.24308 16.8463 11.78 16.2533 14.6426 13.5733C16.3283 11.995 17.444 10.0016 17.9579 7.6498C18.1071 6.97166 18.4496 6.36308 18.9557 5.88926C19.7744 5.12274 20.917 4.80459 22.0108 5.04395C22.8995 5.23511 23.6582 5.76668 24.1505 6.53182C24.6428 7.29697 24.8052 8.21104 24.6102 9.09707C23.7937 12.846 22.0246 16.0158 19.3493 18.5206Z" fill="#F4A360"/>
<path d="M19.8954 19.1031C15.5004 23.2179 10.248 24.2368 9.23958 24.3994C8.13106 24.565 7.02133 24.2892 6.11738 23.622C5.21179 22.9536 4.62184 21.9746 4.45721 20.8649C4.25093 19.4978 4.73202 18.1158 5.74444 17.1679C6.36371 16.5881 7.13153 16.2105 7.96491 16.0757C7.9923 16.0725 11.3829 15.5245 14.0938 12.9864C15.6569 11.5229 16.6931 9.6685 17.1732 7.47454C17.356 6.63786 17.7827 5.88686 18.4072 5.30217C19.4196 4.35429 20.8302 3.96515 22.1803 4.2609C23.2792 4.50211 24.2179 5.15496 24.8225 6.09909C25.4288 7.04497 25.6311 8.17044 25.392 9.26781C24.5394 13.1777 22.6901 16.4866 19.8954 19.1031ZM6.8342 18.3319C6.21044 18.9159 5.91061 19.7729 6.03193 20.6245C6.24363 22.0464 7.57323 23.0288 8.9961 22.8156C9.21769 22.783 14.4896 21.9749 18.8003 17.939C21.3505 15.5515 23.042 12.5202 23.8277 8.92961C23.9774 8.25052 23.8531 7.55312 23.4775 6.9671C23.1015 6.38058 22.519 5.97573 21.8375 5.82753C21 5.64552 20.1258 5.88714 19.4986 6.4744C19.1104 6.83782 18.8459 7.3033 18.7337 7.82059C18.1844 10.3354 16.9907 12.4678 15.1855 14.1579C12.2295 16.9255 8.6178 17.5931 8.21561 17.6602C7.69882 17.7383 7.22012 17.9706 6.8342 18.3319Z" fill="#4C2F1B"/>
<path d="M21.9485 20.8451C18.085 24.4622 13.0968 26.2223 9.71379 26.666C8.8121 26.7852 7.91953 26.5444 7.19708 25.9897C6.47487 25.4347 6.01419 24.6348 5.89825 23.7304C5.75813 22.6464 6.15 21.5494 6.94902 20.8013C7.46932 20.3142 8.11869 20.0049 8.82676 19.9122C8.88214 19.9029 10.2904 19.709 12.12 19.0249C14.167 18.2596 15.9123 17.2121 17.3052 15.908C19.3236 14.0184 20.5381 11.6229 20.9109 8.79056C21.0139 8.01167 21.3852 7.28544 21.9594 6.7479C22.707 6.0479 23.7204 5.72266 24.7349 5.85487C25.6343 5.97199 26.4396 6.43334 26.9939 7.15631C27.5482 7.87927 27.7855 8.77089 27.6699 9.67327C27.085 14.0804 25.1608 17.8376 21.9485 20.8451Z" fill="#FF6C4A"/>
<path d="M22.4988 21.4336C18.5012 25.1764 13.3279 27.0012 9.81952 27.4614C8.7042 27.6063 7.60001 27.3093 6.71017 26.6247C5.82291 25.9424 5.25341 24.9513 5.10616 23.8347C4.93054 22.4968 5.41593 21.1454 6.40417 20.2202C7.04762 19.6177 7.84788 19.2377 8.71832 19.1211C8.72997 19.1196 10.0784 18.9359 11.8414 18.279C13.7914 17.5499 15.4463 16.5567 16.7601 15.3267C18.6379 13.5686 19.7671 11.3354 20.1162 8.68869C20.2401 7.72669 20.6999 6.83017 21.4117 6.16379C22.3376 5.2969 23.587 4.89794 24.8391 5.06951C25.9499 5.21305 26.9394 5.78375 27.6271 6.67624C28.3128 7.56601 28.6088 8.67013 28.4612 9.78473C27.8551 14.3776 25.8492 18.2968 22.4988 21.4336ZM7.49625 21.3866C6.88471 21.9592 6.58337 22.7966 6.6897 23.6267C6.87493 25.0528 8.18531 26.0611 9.61041 25.8753C12.8699 25.4487 17.6796 23.7506 21.4037 20.2639C24.4781 17.3855 26.3182 13.7874 26.8727 9.56915C26.9636 8.8797 26.7809 8.19585 26.3575 7.64427C25.9338 7.0917 25.3201 6.73752 24.6287 6.6472C23.8491 6.54701 23.0747 6.79621 22.5038 7.33072C22.0638 7.74269 21.7788 8.2988 21.7016 8.89692C21.3054 11.9171 20.0102 14.4727 17.8519 16.4934C16.3823 17.8693 14.5481 18.9733 12.3999 19.7749C10.439 20.5058 8.95004 20.7028 8.93526 20.7045C8.39355 20.7765 7.89589 21.0125 7.49625 21.3866Z" fill="#4C2F1B"/>
<path d="M14.0325 22.3115C13.413 22.8915 12.6298 22.5052 12.1094 22.2517C11.5648 21.9833 11.2792 21.8777 11.1456 22.0028C10.8215 22.3062 10.3153 22.2898 10.0122 21.9659C9.70901 21.6421 9.7259 21.136 10.05 20.8326C10.9966 19.9463 12.1329 20.4764 12.7726 20.7889C12.6957 20.2056 12.6208 19.3105 13.3173 18.6584C14.0193 18.0011 14.93 18.1133 15.5336 18.1824C15.6433 18.1971 15.7885 18.2153 15.9013 18.2219C15.9181 18.0463 15.9107 17.7761 15.9057 17.5999C15.888 16.9714 15.8705 16.2577 16.3539 15.8051C16.857 15.334 17.637 15.4031 18.3261 15.467C18.4084 15.475 18.5016 15.4836 18.598 15.4896C18.5957 15.4702 18.5935 15.4564 18.5886 15.4396C18.4956 14.839 18.3583 13.9285 19.0063 13.3218C19.5151 12.8454 20.2507 12.9186 20.8983 12.9896C20.9616 12.9943 21.0384 13.0024 21.1152 13.0104C21.1098 13.0047 21.1103 12.9992 21.1075 12.9962C20.7963 12.3335 20.2175 11.1057 21.1557 10.2274C21.4798 9.92397 21.9859 9.94041 22.2891 10.2642C22.5922 10.588 22.5753 11.0942 22.2512 11.3976C22.1992 11.5529 22.4409 12.0674 22.5595 12.3135C22.8321 12.8894 23.2051 13.6811 22.5826 14.2639C22.085 14.7298 21.366 14.657 20.7319 14.5893C20.5536 14.5697 20.2765 14.5416 20.1109 14.5471C20.0971 14.7148 20.1446 15.0218 20.1716 15.2045C20.2552 15.7441 20.3478 16.3557 19.8874 16.7868C19.4581 17.1888 18.8379 17.13 18.1789 17.0702C17.9867 17.0528 17.7009 17.0269 17.5082 17.032C17.4974 17.1913 17.5064 17.4118 17.5096 17.5636C17.5287 18.2276 17.5449 18.98 17.0274 19.4645C16.5327 19.9276 15.8715 19.8484 15.3367 19.784C14.9581 19.7388 14.566 19.6903 14.4097 19.8367C14.2846 19.9539 14.3156 20.2604 14.3704 20.6836C14.4427 21.1656 14.5328 21.843 14.0325 22.3115Z" fill="#F9AF38"/>
<path d="M24.1914 23.8217C20.1063 27.6464 15.3748 29.0487 14.4227 29.1941C13.523 29.3274 12.7037 29.1989 12.0556 28.8199C11.3155 28.3882 10.8308 27.6427 10.6934 26.7214C10.5265 25.6143 10.9166 24.4923 11.7353 23.7258C12.2384 23.2548 12.8627 22.9526 13.5466 22.8452C13.6903 22.8223 17.2273 22.2293 20.09 19.5491C21.7758 17.9708 22.8915 15.9774 23.4054 13.6256C23.5549 12.9477 23.8973 12.3391 24.4034 11.8653C25.2224 11.0986 26.3645 10.7804 27.4583 11.0198C28.3634 11.217 29.0667 11.6888 29.4897 12.38C29.8996 13.0516 30.0149 13.8813 29.8172 14.7811C28.9005 18.9542 26.5734 21.5915 24.1914 23.8217Z" fill="#F4A360"/>
<path d="M24.7353 24.4094C19.9138 28.9236 14.5833 29.9785 14.5301 29.9886C13.4555 30.1506 12.4558 29.9867 11.6466 29.5127C10.6911 28.9513 10.0694 28.0025 9.89664 26.841C9.69036 25.4739 10.1715 24.0919 11.1839 23.1441C11.8059 22.5617 12.5751 22.186 13.408 22.0578C13.4381 22.0539 16.8469 21.4875 19.5381 18.9678C21.1013 17.5043 22.1372 15.6501 22.6176 13.4559C22.8006 12.6195 23.2268 11.8685 23.8513 11.2838C24.8637 10.3359 26.2743 9.94676 27.6244 10.2425C28.7478 10.4864 29.6268 11.0825 30.1661 11.9663C30.687 12.8201 30.8344 13.8534 30.5926 14.9548C29.637 19.3393 27.2126 22.09 24.7353 24.4094ZM12.2764 24.3105C11.6519 24.8952 11.3511 25.7532 11.4717 26.6055C11.6725 27.9478 12.7542 28.6374 14.2948 28.4071C14.3409 28.3999 19.2222 27.3765 23.6374 23.2428C25.9245 21.1015 28.16 18.5743 29.0269 14.6142C29.1832 13.9037 29.0973 13.2643 28.7777 12.766C28.4685 12.2838 27.9509 11.9523 27.28 11.8064C26.4422 11.6246 25.5681 11.8663 24.9411 12.4533C24.5532 12.8165 24.2886 13.282 24.1762 13.7995C23.6269 16.3143 22.4329 18.4469 20.6279 20.1368C17.6697 22.9065 14.06 23.5722 13.6581 23.6391C13.1411 23.717 12.6621 23.9494 12.2764 24.3105Z" fill="#4C2F1B"/>
<path d="M17.7871 26.3399C17.7046 26.4172 17.5901 26.4603 17.4696 26.4456C17.2503 26.4218 17.0912 26.2239 17.1179 26.0015C17.247 24.8625 16.3216 24.2789 16.2837 24.2559C16.0946 24.1394 16.0368 23.8952 16.1507 23.7035C16.2671 23.5146 16.509 23.4536 16.7004 23.567C16.7599 23.6021 18.1066 24.4308 17.9162 26.091C17.8995 26.1921 17.8552 26.2762 17.7871 26.3399ZM23.2494 22.6119C23.1983 22.6598 23.1339 22.6934 23.0615 22.7131C22.8449 22.7611 22.6321 22.6247 22.5845 22.4084C22.3335 21.2573 21.334 21.1642 21.3259 21.1611C21.1062 21.1428 20.9418 20.9503 20.9603 20.7306C20.9785 20.5107 21.1714 20.3464 21.3911 20.3647C21.9403 20.41 23.0659 20.8596 23.3668 22.2356C23.3976 22.3769 23.3489 22.5188 23.2494 22.6119Z" fill="#4C2F1B"/>
<path d="M27.3938 17.2039C27.3482 17.2466 27.2921 17.2776 27.2308 17.2975C27.017 17.3594 26.7982 17.234 26.7363 17.02C26.4459 15.9921 25.3354 16.0138 25.2888 16.0149C25.0685 16.0189 24.8841 15.8504 24.8748 15.6297C24.8655 15.4095 25.0397 15.2249 25.2602 15.2157C25.8778 15.1915 27.1395 15.4913 27.5085 16.8025C27.548 16.9525 27.4989 17.1054 27.3938 17.2039Z" fill="#4C2F1B"/>
<path d="M28.3316 6.35247C28.2578 6.42153 28.1652 6.4709 28.0654 6.49518L27.0778 6.72744C26.7751 6.79727 26.4701 6.61983 26.3837 6.32227L26.11 5.37457C26.0483 5.16086 26.1108 4.93694 26.2728 4.78529C26.4604 4.60961 26.7368 4.57465 26.9582 4.70279L28.2201 5.41825C28.3823 5.51163 28.4897 5.67179 28.5137 5.85724C28.5347 6.03993 28.4679 6.22485 28.3316 6.35247Z" fill="#FF6C4A"/>
<path d="M26.5435 5.07419C26.5976 5.02355 26.6806 5.00427 26.7591 5.04811L28.0211 5.76356C28.1372 5.8306 28.1434 5.97955 28.0581 6.05937C28.0354 6.0806 28.0074 6.09611 27.9742 6.10614L26.9862 6.33847C26.8892 6.36019 26.7947 6.30472 26.7673 6.21304L26.4934 5.25947C26.4736 5.18735 26.4952 5.11947 26.5435 5.07419ZM25.9958 4.48917C25.7228 4.74472 25.6194 5.12387 25.7202 5.48236L25.9943 6.43013C26.14 6.93304 26.6557 7.23353 27.1664 7.11247L28.1544 6.88014C28.3236 6.83903 28.4779 6.75856 28.603 6.6414C28.8306 6.42833 28.9457 6.11259 28.9063 5.80318C28.8697 5.49627 28.6834 5.21783 28.4132 5.06562L27.1509 4.34992C26.7783 4.1398 26.3114 4.1937 25.9958 4.48917Z" fill="#4C2F1B"/>
<path d="M5.66408 26.0494C5.52777 26.177 5.33886 26.2315 5.15539 26.1954C4.97217 26.159 4.82199 26.044 4.73667 25.8735L4.10577 24.5673C3.99522 24.3354 4.04554 24.0644 4.23592 23.8862C4.3979 23.7345 4.62521 23.6867 4.83464 23.7625L5.76228 24.098C6.05302 24.2038 6.21073 24.52 6.12091 24.8172L5.82419 25.7874C5.79321 25.8912 5.73809 25.9801 5.66408 26.0494Z" fill="#FF6C4A"/>
<path d="M4.50784 24.1846C4.5562 24.1394 4.62279 24.1195 4.69627 24.1466L5.62396 24.4824C5.71365 24.5157 5.76535 24.6164 5.73472 24.7091L5.43791 25.6797C5.42595 25.7124 5.40839 25.7391 5.38571 25.7603C5.30046 25.8401 5.15223 25.8242 5.09298 25.704L4.46187 24.3973C4.4288 24.3171 4.45375 24.2353 4.50784 24.1846ZM3.96011 23.5996C3.64453 23.8951 3.55471 24.3577 3.74523 24.7491L4.37634 26.0557C4.51301 26.3381 4.77603 26.5396 5.07986 26.5963C5.38923 26.6534 5.70888 26.5617 5.93622 26.3488C6.06136 26.2317 6.15453 26.0809 6.20396 25.9168L6.50078 24.9463C6.65493 24.4444 6.3895 23.9101 5.89404 23.7341L4.96635 23.3983C4.6182 23.2658 4.23307 23.3441 3.96011 23.5996Z" fill="#4C2F1B"/>
</g>
<defs>
<clipPath id="clip0_1_8962">
<rect width="31.9805" height="18.2746" fill="white" transform="translate(0.543945 22.0261) rotate(-43.1142)"/>
</clipPath>
</defs>
</svg>
