<svg width="16" height="16" viewBox="0 0 16 16" fill="none" xmlns="http://www.w3.org/2000/svg">
<path opacity="0.1" d="M13.6199 13.3173L9.92128 8.22563L15.0129 4.52697C15.6537 4.06152 15.7977 3.15285 15.3322 2.51211C14.8668 1.87136 13.9581 1.72737 13.3173 2.19282L8.22569 5.8915L4.52703 0.799846C4.06158 0.1591 3.15292 0.0151088 2.51217 0.48056C1.87143 0.94601 1.72743 1.85468 2.19288 2.49543L5.89156 7.58705L0.799915 11.2857C0.159168 11.7512 0.0151746 12.6599 0.480625 13.3006C0.946076 13.9413 1.85473 14.0853 2.49548 13.6199L7.58712 9.9212L11.2858 15.0129C11.7513 15.6536 12.6599 15.7976 13.3007 15.3321C13.9513 14.8683 14.0937 13.9695 13.6199 13.3173Z" fill="white"/>
</svg>
