<svg width="101" height="98" viewBox="0 0 101 98" fill="none" xmlns="http://www.w3.org/2000/svg">
<path d="M71.6674 10.7116C80.803 24.386 86.0196 40.0147 80.7461 55.9957C75.9861 70.4204 63.0132 78.9646 48.1158 68.2626C41.0635 63.1967 36.4872 52.9728 41.0691 45.3769C46.1738 36.9143 57.5029 44.4116 60.5762 50.1708C67.7546 63.622 63.1038 81.7602 47.3119 89.9539C28.6107 99.6572 20.562 81.1086 20.7098 81.1042" stroke="#665AB5" stroke-width="2.65" stroke-miterlimit="1.5" stroke-linecap="round" stroke-linejoin="round"/>
<path d="M91.0256 14.5961C89.1011 14.9709 87.2152 14.593 85.3117 14.3024C79.0611 13.3486 72.67 10.5337 68.7869 5.89173C71.0236 11.8452 71.6846 20.249 66.9237 25.2903" stroke="#665AB5" stroke-width="2.65" stroke-miterlimit="1.5" stroke-linecap="round" stroke-linejoin="round"/>
</svg>
