<svg width="25" height="25" viewBox="0 0 25 25" fill="none" xmlns="http://www.w3.org/2000/svg">
<g clip-path="url(#clip0_1_8939)">
<path d="M12.2859 0.95752C5.87696 0.95752 0.66748 6.1513 0.66748 12.5761C0.66748 18.9854 5.8612 24.1947 12.2859 24.1947C18.6952 24.1947 23.9043 19.0009 23.9043 12.5761C23.9043 6.1513 18.6952 0.95752 12.2859 0.95752ZM12.2859 16.4279C10.1548 16.4279 8.41835 14.6914 8.41835 12.5603C8.41835 10.4292 10.1548 8.69273 12.2859 8.69273C14.417 8.69273 16.1535 10.4292 16.1535 12.5603C16.1535 14.7075 14.4173 16.4279 12.2859 16.4279Z" fill="#EDB66B"/>
<path d="M7.04148 16.3625C6.75438 16.3625 6.51265 16.2566 6.33113 16.0753C5.90788 15.637 5.923 14.8815 5.95326 13.99C5.96839 13.2191 5.99864 12.2519 5.6359 11.8743C5.56026 11.7835 5.4093 11.678 5.06169 11.6628H5.00118C4.62331 11.6628 4.35134 11.7385 4.20006 11.9046C3.89783 12.2219 3.94322 12.9323 3.97347 13.5065C4.01885 14.111 4.04911 14.6401 3.70149 14.9424C3.44464 15.1841 3.09703 15.3051 2.71916 15.3051C1.97855 15.3051 1.10212 14.7914 0.815011 14.1869C0.785072 14.1261 0.769944 14.0807 0.769944 14.0202L0.754817 13.8689C0.709435 13.2947 0.648926 12.66 0.648926 12.388C0.648926 5.98025 5.86249 0.781738 12.2547 0.781738C18.647 0.781738 23.8609 5.99538 23.8609 12.388C23.8609 12.6449 23.8457 12.9168 23.8306 13.174C23.7701 13.9748 23.1203 14.5944 22.3346 14.5944C22.1685 14.5944 21.987 14.5642 21.8209 14.5037C21.0651 14.2166 20.4304 13.6726 19.826 13.1434C18.9495 12.3726 18.1181 11.6625 16.9395 11.6323C16.1989 11.6171 15.5339 11.209 15.1866 10.5743C14.3404 9.0026 14.2345 8.94209 12.1038 8.94209C8.17477 8.94209 8.17477 11.1485 8.17477 11.874C8.17477 12.2821 8.20502 12.7202 8.22015 13.1434C8.29579 14.3826 8.3563 15.4706 7.82716 16.03C7.66107 16.2417 7.37397 16.3625 7.04148 16.3625Z" fill="#86522C"/>
<path d="M12.2849 1.28116C18.4203 1.28116 23.4072 6.25307 23.4072 12.4037C23.4072 12.6605 23.3921 12.9174 23.377 13.1594C23.3316 13.7034 22.8784 14.1115 22.3798 14.1115C22.274 14.1115 22.1533 14.0964 22.0474 14.051C20.3547 13.4163 19.2516 11.1947 17.0002 11.1497C16.4562 11.1345 15.9271 10.8323 15.6702 10.3485C14.7182 8.56538 14.4008 8.45949 12.149 8.45949C9.64043 8.45949 7.72115 9.30568 7.72115 11.8748C7.72115 13.7185 8.18978 15.8644 7.05618 15.8644C5.56015 15.8644 7.63038 11.2401 5.09183 11.1796H5.01619C2.55296 11.1796 3.91316 14.1115 3.39946 14.595C3.21793 14.7614 2.99134 14.8216 2.74962 14.8216C2.14515 14.8216 1.48018 14.3983 1.29865 13.9905C1.2684 13.6731 1.19276 12.721 1.19276 12.4037C1.16251 6.25307 6.14948 1.28116 12.2849 1.28116ZM12.2849 0.283691C5.60553 0.283691 0.180176 5.70911 0.180176 12.3885C0.180176 12.6757 0.240685 13.3255 0.286067 13.9148L0.301194 14.0658C0.316322 14.1868 0.346576 14.3075 0.391958 14.4134C0.769826 15.1991 1.79754 15.8039 2.73449 15.8039C3.23306 15.8039 3.68656 15.6375 4.0493 15.3201C4.57813 14.8518 4.53275 14.1566 4.48737 13.4765C4.47224 13.1288 4.41173 12.4185 4.57813 12.2524C4.60839 12.2221 4.74422 12.1616 5.01619 12.1616H5.06158C5.10696 12.1616 5.24279 12.1616 5.28817 12.207C5.51477 12.4336 5.48451 13.4311 5.46938 13.975C5.43913 14.9271 5.424 15.8338 5.98308 16.4081C6.25506 16.6952 6.63293 16.8464 7.05618 16.8464C7.52481 16.8464 7.93262 16.68 8.23485 16.3479C8.89982 15.6375 8.83931 14.4588 8.76367 13.0986C8.73342 12.6905 8.71829 12.2524 8.71829 11.8594C8.71829 11.1339 8.71829 9.42639 12.1487 9.42639C14.068 9.42639 14.068 9.42639 14.7932 10.8017C15.2164 11.6025 16.0626 12.1014 16.9693 12.1166C17.9668 12.1317 18.6922 12.7661 19.5384 13.5067C20.1883 14.0658 20.8532 14.6555 21.6843 14.9577C21.8958 15.0333 22.1378 15.0787 22.3644 15.0787C23.4072 15.0787 24.2837 14.2625 24.3439 13.2048C24.359 12.9328 24.3741 12.6457 24.3741 12.3737C24.3899 5.72424 18.9645 0.283691 12.2849 0.283691Z" fill="#4C2F1B"/>
<path d="M13.9537 23.2813C14.0378 23.5012 14.383 23.5733 14.7248 23.4423C15.0666 23.3115 15.2755 23.0274 15.1914 22.8075C15.1073 22.5876 14.762 22.5158 14.4202 22.6465C14.0784 22.7776 13.8696 23.0617 13.9537 23.2813Z" fill="#E3A358"/>
<path d="M20.3217 19.211C20.4688 19.5953 20.8267 19.8656 21.2605 19.9201C21.6943 19.9743 22.1378 19.8045 22.4245 19.4747C22.7111 19.1445 22.7971 18.7044 22.65 18.3201C22.5029 17.9355 22.145 17.6655 21.7113 17.611C21.2775 17.5568 20.8336 17.7266 20.547 18.0565C20.2603 18.3866 20.1746 18.8267 20.3217 19.211Z" fill="#E3A358"/>
<path d="M9.32361 24.0057C9.47072 24.39 9.82858 24.6603 10.2624 24.7148C10.6961 24.769 11.14 24.5992 11.4266 24.2693C11.7133 23.9392 11.7993 23.4991 11.6522 23.1148C11.5051 22.7305 11.1472 22.4602 10.7135 22.4057C10.2797 22.3515 9.83583 22.5213 9.54916 22.8511C9.2625 23.1813 9.1765 23.6214 9.32361 24.0057Z" fill="#E3A358"/>
<path d="M6.90065 22.2305C7.13156 22.2828 7.36278 22.2523 7.50768 22.1499C7.65228 22.0475 7.68819 21.8894 7.60187 21.7344C7.51556 21.5797 7.32025 21.4518 7.08935 21.3995C6.85844 21.3469 6.62722 21.3778 6.48232 21.4802C6.33772 21.5825 6.30181 21.7407 6.38813 21.8954C6.47413 22.0503 6.66975 22.1779 6.90065 22.2305Z" fill="#E3A358"/>
<path d="M11.8476 17.5407C12.0401 17.5845 12.2278 17.581 12.3403 17.5312C12.4527 17.4815 12.4726 17.3936 12.3929 17.3003C12.3129 17.2071 12.145 17.1227 11.9525 17.0789C11.76 17.0351 11.5723 17.0385 11.4598 17.0883C11.3473 17.1381 11.3275 17.226 11.4072 17.3192C11.4872 17.4128 11.6551 17.4969 11.8476 17.5407Z" fill="#E3A358"/>
<path d="M3.15038 18.6207C3.29907 18.6545 3.44807 18.6327 3.54194 18.564C3.63582 18.4951 3.65944 18.3895 3.60495 18.2871C3.55013 18.1844 3.42507 18.1007 3.2767 18.0669C3.12802 18.0332 2.97901 18.0547 2.88545 18.1237C2.79158 18.1923 2.76764 18.2982 2.82245 18.4006C2.87663 18.5029 3.00201 18.587 3.15038 18.6207Z" fill="#E3A358"/>
<path d="M9.13855 16.4263C9.33449 16.5592 9.5424 16.6424 9.68416 16.6443C9.82591 16.6462 9.88009 16.5665 9.82591 16.4354C9.77204 16.304 9.618 16.1415 9.42206 16.0086C9.22613 15.8756 9.01822 15.7925 8.87614 15.7906C8.73439 15.7887 8.68052 15.8684 8.73439 15.9994C8.78857 16.1308 8.94261 16.2933 9.13855 16.4263Z" fill="#E3A358"/>
<path d="M12.2849 24.8659C5.50725 24.8659 -0.00634766 19.3522 -0.00634766 12.5751C-0.00634766 5.79736 5.50725 0.283691 12.2849 0.283691C19.0623 0.283691 24.5759 5.79736 24.5759 12.5751C24.5759 19.3522 19.062 24.8659 12.2849 24.8659ZM12.2849 1.62878C6.25794 1.62878 1.3548 6.5323 1.3548 12.559C1.3548 18.5858 6.25826 23.4893 12.2849 23.4893C18.3116 23.4893 23.215 18.5861 23.215 12.559C23.215 6.53199 18.3116 1.62878 12.2849 1.62878ZM12.2849 17.115C9.78135 17.115 7.74483 15.0784 7.74483 12.5751C7.74483 10.063 9.78135 8.01921 12.2849 8.01921C14.7882 8.01921 16.8247 10.0558 16.8247 12.5594C16.8247 15.0712 14.7882 17.115 12.2849 17.115ZM12.2849 9.37974C10.5317 9.37974 9.10566 10.8061 9.10566 12.559C9.10566 14.3119 10.532 15.7383 12.2849 15.7383C14.0378 15.7383 15.4642 14.3119 15.4642 12.559C15.4639 10.8061 14.0378 9.37974 12.2849 9.37974Z" fill="#4C2F1B"/>
<path d="M12.9482 6.23042L10.2965 4.47834C10.1859 4.415 10.1701 4.2732 10.2331 4.16259L10.5331 3.72079C10.5961 3.61018 10.7383 3.59443 10.8489 3.65745L13.5006 5.40952C13.6112 5.47286 13.6269 5.61498 13.5636 5.72528L13.2636 6.16739C13.2009 6.27768 13.0588 6.29344 12.9482 6.23042Z" fill="#DB79AD"/>
<path d="M2.4181 9.0082L3.1127 7.49293C3.15997 7.38231 3.3021 7.33503 3.41272 7.38231L3.90215 7.60323C4.01277 7.6505 4.06004 7.79264 4.01277 7.90326L3.31818 9.41853C3.27059 9.52915 3.12877 9.57643 3.01815 9.52915L2.52872 9.30823C2.4181 9.24488 2.35507 9.11882 2.4181 9.0082ZM19.6563 8.88182L18.3302 7.85567C18.2356 7.77688 18.2195 7.63475 18.2829 7.53988L18.6144 7.11379C18.6932 7.01925 18.8353 7.00317 18.9302 7.06652L20.2564 8.09267C20.3509 8.17177 20.367 8.31359 20.3036 8.40846L19.9721 8.83486C19.8933 8.94517 19.7512 8.96061 19.6563 8.88182Z" fill="#F6B173"/>
<path d="M16.328 6.73577L15.4123 4.66745C15.365 4.55681 15.4123 4.41466 15.523 4.36738L16.0121 4.14642C16.1228 4.09914 16.2649 4.14642 16.3122 4.25706L17.2278 6.32538C17.2751 6.43602 17.2278 6.57786 17.1172 6.62545L16.6277 6.8464C16.5177 6.89368 16.3913 6.84609 16.328 6.73577ZM6.16045 10.5881L5.24481 8.51979C5.19753 8.40915 5.24481 8.26731 5.35545 8.21972L5.84494 7.99877C5.95557 7.95149 6.09741 7.99877 6.14501 8.1094L7.06064 10.1777C7.10792 10.2884 7.06064 10.4305 6.95001 10.4778L6.46051 10.6987C6.33444 10.7618 6.20804 10.6987 6.16045 10.5881Z" fill="#F7E774"/>
<path d="M6.58661 6.30934L7.53396 4.25704C7.58123 4.14642 7.72336 4.09915 7.83398 4.14642L8.32341 4.36735C8.43403 4.41462 8.48131 4.55676 8.43403 4.66738L7.48668 6.71968C7.43941 6.8303 7.29728 6.87757 7.18666 6.8303L6.69723 6.60937C6.58661 6.5621 6.53933 6.43572 6.58661 6.30934ZM20.8413 11.4559L21.1571 9.21414C21.1728 9.08776 21.2834 9.00897 21.4098 9.02473L21.9465 9.10352C22.0729 9.11928 22.1517 9.2299 22.1359 9.35596L21.8201 11.5977C21.8044 11.7237 21.6938 11.8028 21.5677 11.7871L21.031 11.7083C20.9043 11.6925 20.8255 11.5822 20.8413 11.4559Z" fill="#EC6A69"/>
<path d="M5.41292 19.1806C5.52332 19.2373 5.64601 19.2493 5.73496 19.2124C5.82359 19.1755 5.86491 19.0951 5.84314 19.0014C5.82138 18.9077 5.73969 18.8153 5.62929 18.7585C5.5189 18.7018 5.39621 18.6898 5.30726 18.7267C5.21863 18.7636 5.17731 18.844 5.19907 18.9377C5.22084 19.0311 5.30221 19.1238 5.41292 19.1806Z" fill="#E3A358"/>
<path d="M17.0198 19.7348C17.0478 19.8085 17.1641 19.8422 17.3238 19.823C17.4838 19.8041 17.6637 19.7351 17.7954 19.6425C17.927 19.5499 17.991 19.4472 17.963 19.3735C17.9346 19.2998 17.8187 19.2661 17.6587 19.285C17.4986 19.3039 17.3188 19.3725 17.1871 19.4655C17.0554 19.5584 16.9915 19.6611 17.0198 19.7348Z" fill="#E3A358"/>
<path d="M9.93252 18.9058C10.0822 19.0164 10.2598 19.0652 10.3984 19.034C10.537 19.0028 10.6158 18.8963 10.6044 18.7546C10.5934 18.6131 10.4945 18.4575 10.3449 18.3469C10.1952 18.2364 10.0176 18.1875 9.87897 18.2187C9.74037 18.2499 9.66161 18.3564 9.67295 18.4982C9.68366 18.6402 9.78289 18.7955 9.93252 18.9058Z" fill="#E3A358"/>
<path d="M14.3565 21.0255C14.3745 21.1551 14.5501 21.2377 14.7488 21.2103C14.9479 21.1828 15.0942 21.0554 15.0762 20.9258C15.0583 20.7961 14.8826 20.7132 14.6839 20.7409C14.4848 20.7684 14.3385 20.8958 14.3565 21.0255Z" fill="#E3A358"/>
</g>
<defs>
<clipPath id="clip0_1_8939">
<rect width="24.5822" height="24.5822" fill="white" transform="translate(-0.00634766 0.283691)"/>
</clipPath>
</defs>
</svg>
