<svg width="336" height="153" viewBox="0 0 336 153" fill="none" xmlns="http://www.w3.org/2000/svg">
<path d="M43.848 8.87979V32.3998C43.848 35.6638 42.904 38.2078 41.016 40.0318C39.128 41.8238 36.6 42.7198 33.432 42.7198C30.232 42.7198 27.64 41.7918 25.656 39.9358C23.704 38.0798 22.728 35.4878 22.728 32.1598H29.448C29.48 33.5998 29.816 34.7198 30.456 35.5198C31.128 36.3198 32.088 36.7198 33.336 36.7198C34.552 36.7198 35.48 36.3358 36.12 35.5678C36.76 34.7998 37.08 33.7438 37.08 32.3998V8.87979H43.848ZM76.791 15.7918V42.3838H70.023V39.0238C69.159 40.1758 68.023 41.0878 66.615 41.7598C65.239 42.3998 63.735 42.7198 62.103 42.7198C60.023 42.7198 58.183 42.2878 56.583 41.4238C54.983 40.5278 53.719 39.2318 52.791 37.5358C51.895 35.8078 51.447 33.7598 51.447 31.3918V15.7918H58.167V30.4318C58.167 32.5438 58.695 34.1758 59.751 35.3278C60.807 36.4478 62.247 37.0078 64.071 37.0078C65.927 37.0078 67.383 36.4478 68.439 35.3278C69.495 34.1758 70.023 32.5438 70.023 30.4318V15.7918H76.791ZM93.5974 42.8158C91.4214 42.8158 89.4694 42.4318 87.7414 41.6638C86.0134 40.8638 84.6374 39.7918 83.6134 38.4478C82.6214 37.1038 82.0774 35.6158 81.9814 33.9838H88.7494C88.8774 35.0078 89.3734 35.8558 90.2374 36.5278C91.1334 37.1998 92.2374 37.5358 93.5494 37.5358C94.8294 37.5358 95.8214 37.2798 96.5254 36.7678C97.2614 36.2558 97.6294 35.5998 97.6294 34.7998C97.6294 33.9358 97.1814 33.2958 96.2854 32.8798C95.4214 32.4318 94.0294 31.9518 92.1094 31.4398C90.1254 30.9598 88.4934 30.4638 87.2134 29.9518C85.9654 29.4398 84.8774 28.6558 83.9494 27.5998C83.0534 26.5438 82.6054 25.1198 82.6054 23.3278C82.6054 21.8558 83.0214 20.5118 83.8534 19.2958C84.7174 18.0798 85.9334 17.1198 87.5014 16.4158C89.1014 15.7118 90.9734 15.3598 93.1174 15.3598C96.2854 15.3598 98.8134 16.1598 100.701 17.7598C102.589 19.3278 103.629 21.4558 103.821 24.1438H97.3894C97.2934 23.0878 96.8454 22.2558 96.0454 21.6478C95.2774 21.0078 94.2374 20.6878 92.9254 20.6878C91.7094 20.6878 90.7654 20.9118 90.0934 21.3598C89.4534 21.8078 89.1334 22.4318 89.1334 23.2318C89.1334 24.1278 89.5814 24.8158 90.4774 25.2958C91.3734 25.7438 92.7654 26.2078 94.6534 26.6878C96.5734 27.1678 98.1574 27.6638 99.4054 28.1758C100.653 28.6878 101.725 29.4878 102.621 30.5758C103.549 31.6318 104.029 33.0398 104.061 34.7998C104.061 36.3358 103.629 37.7118 102.765 38.9278C101.933 40.1438 100.717 41.1038 99.1174 41.8078C97.5494 42.4798 95.7094 42.8158 93.5974 42.8158ZM117.402 21.3118V34.1758C117.402 35.0718 117.61 35.7278 118.026 36.1438C118.474 36.5278 119.21 36.7198 120.234 36.7198H123.354V42.3838H119.13C113.466 42.3838 110.634 39.6318 110.634 34.1278V21.3118H107.466V15.7918H110.634V9.21579H117.402V15.7918H123.354V21.3118H117.402ZM137.993 25.5838C137.993 22.2878 138.729 19.3438 140.201 16.7518C141.705 14.1278 143.737 12.0958 146.297 10.6558C148.889 9.18379 151.785 8.44779 154.985 8.44779C158.729 8.44779 162.009 9.40779 164.825 11.3278C167.641 13.2478 169.609 15.9038 170.729 19.2958H163.001C162.233 17.6958 161.145 16.4958 159.737 15.6958C158.361 14.8958 156.761 14.4958 154.937 14.4958C152.985 14.4958 151.241 14.9598 149.705 15.8878C148.201 16.7838 147.017 18.0638 146.153 19.7278C145.321 21.3918 144.905 23.3438 144.905 25.5838C144.905 27.7918 145.321 29.7438 146.153 31.4398C147.017 33.1038 148.201 34.3998 149.705 35.3278C151.241 36.2238 152.985 36.6718 154.937 36.6718C156.761 36.6718 158.361 36.2718 159.737 35.4718C161.145 34.6398 162.233 33.4238 163.001 31.8238H170.729C169.609 35.2478 167.641 37.9198 164.825 39.8398C162.041 41.7278 158.761 42.6718 154.985 42.6718C151.785 42.6718 148.889 41.9518 146.297 40.5118C143.737 39.0398 141.705 37.0078 140.201 34.4158C138.729 31.8238 137.993 28.8798 137.993 25.5838ZM188.276 42.8158C185.716 42.8158 183.412 42.2558 181.364 41.1358C179.316 39.9838 177.7 38.3678 176.516 36.2878C175.364 34.2078 174.788 31.8078 174.788 29.0878C174.788 26.3678 175.38 23.9678 176.564 21.8878C177.78 19.8078 179.428 18.2078 181.508 17.0878C183.588 15.9358 185.908 15.3598 188.468 15.3598C191.028 15.3598 193.348 15.9358 195.428 17.0878C197.508 18.2078 199.14 19.8078 200.324 21.8878C201.54 23.9678 202.148 26.3678 202.148 29.0878C202.148 31.8078 201.524 34.2078 200.276 36.2878C199.06 38.3678 197.396 39.9838 195.284 41.1358C193.204 42.2558 190.868 42.8158 188.276 42.8158ZM188.276 36.9598C189.492 36.9598 190.628 36.6718 191.684 36.0958C192.772 35.4878 193.636 34.5918 194.276 33.4078C194.916 32.2238 195.236 30.7838 195.236 29.0878C195.236 26.5598 194.564 24.6238 193.22 23.2798C191.908 21.9038 190.292 21.2158 188.372 21.2158C186.452 21.2158 184.836 21.9038 183.524 23.2798C182.244 24.6238 181.604 26.5598 181.604 29.0878C181.604 31.6158 182.228 33.5678 183.476 34.9438C184.756 36.2878 186.356 36.9598 188.276 36.9598ZM221.814 15.4078C224.982 15.4078 227.542 16.4158 229.494 18.4318C231.446 20.4158 232.422 23.1998 232.422 26.7838V42.3838H225.702V27.6958C225.702 25.5838 225.174 23.9678 224.118 22.8478C223.062 21.6958 221.622 21.1198 219.798 21.1198C217.942 21.1198 216.47 21.6958 215.382 22.8478C214.326 23.9678 213.798 25.5838 213.798 27.6958V42.3838H207.078V15.7918H213.798V19.1038C214.694 17.9518 215.83 17.0558 217.206 16.4158C218.614 15.7438 220.15 15.4078 221.814 15.4078ZM246.636 21.3118V34.1758C246.636 35.0718 246.844 35.7278 247.26 36.1438C247.708 36.5278 248.444 36.7198 249.468 36.7198H252.588V42.3838H248.364C242.7 42.3838 239.868 39.6318 239.868 34.1278V21.3118H236.7V15.7918H239.868V9.21579H246.636V15.7918H252.588V21.3118H246.636ZM255.693 28.9918C255.693 26.3038 256.221 23.9198 257.277 21.8398C258.365 19.7598 259.821 18.1598 261.645 17.0398C263.501 15.9198 265.565 15.3598 267.837 15.3598C269.821 15.3598 271.549 15.7598 273.021 16.5598C274.525 17.3598 275.725 18.3678 276.621 19.5838V15.7918H283.389V42.3838H276.621V38.4958C275.757 39.7438 274.557 40.7838 273.021 41.6158C271.517 42.4158 269.773 42.8158 267.789 42.8158C265.549 42.8158 263.501 42.2398 261.645 41.0878C259.821 39.9358 258.365 38.3198 257.277 36.2398C256.221 34.1278 255.693 31.7118 255.693 28.9918ZM276.621 29.0878C276.621 27.4558 276.301 26.0638 275.661 24.9118C275.021 23.7278 274.157 22.8318 273.069 22.2238C271.981 21.5838 270.813 21.2638 269.565 21.2638C268.317 21.2638 267.165 21.5678 266.109 22.1758C265.053 22.7838 264.189 23.6798 263.517 24.8638C262.877 26.0158 262.557 27.3918 262.557 28.9918C262.557 30.5918 262.877 31.9998 263.517 33.2158C264.189 34.3998 265.053 35.3118 266.109 35.9518C267.197 36.5918 268.349 36.9118 269.565 36.9118C270.813 36.9118 271.981 36.6078 273.069 35.9998C274.157 35.3598 275.021 34.4638 275.661 33.3118C276.301 32.1278 276.621 30.7198 276.621 29.0878ZM288.225 29.0878C288.225 26.3358 288.785 23.9358 289.905 21.8878C291.025 19.8078 292.577 18.2078 294.561 17.0878C296.545 15.9358 298.817 15.3598 301.377 15.3598C304.673 15.3598 307.393 16.1918 309.537 17.8558C311.713 19.4878 313.169 21.7918 313.905 24.7678H306.657C306.273 23.6158 305.617 22.7198 304.689 22.0798C303.793 21.4078 302.673 21.0718 301.329 21.0718C299.409 21.0718 297.889 21.7758 296.769 23.1838C295.649 24.5598 295.089 26.5278 295.089 29.0878C295.089 31.6158 295.649 33.5838 296.769 34.9918C297.889 36.3678 299.409 37.0558 301.329 37.0558C304.049 37.0558 305.825 35.8398 306.657 33.4078H313.905C313.169 36.2878 311.713 38.5758 309.537 40.2718C307.361 41.9678 304.641 42.8158 301.377 42.8158C298.817 42.8158 296.545 42.2558 294.561 41.1358C292.577 39.9838 291.025 38.3838 289.905 36.3358C288.785 34.2558 288.225 31.8398 288.225 29.0878ZM326.652 21.3118V34.1758C326.652 35.0718 326.86 35.7278 327.276 36.1438C327.724 36.5278 328.46 36.7198 329.484 36.7198H332.604V42.3838H328.38C322.716 42.3838 319.884 39.6318 319.884 34.1278V21.3118H316.716V15.7918H319.884V9.21579H326.652V15.7918H332.604V21.3118H326.652Z" fill="#F9F9F9"/>
<path d="M17.8125 70.7118C44.4649 65.0272 77.0795 62.1439 103.184 70.3865C109.795 72.4742 115.476 75.6439 119.696 79.3748M119.696 79.3748C126.124 85.0573 129.164 92.0415 126.947 98.4874C123.478 108.572 112.507 117.951 93.4197 118.936C83.4709 119.45 74.3908 117.415 71.3818 111.594C66.7846 102.7 80.8069 92.2682 92.6683 87.4925C100.869 84.1906 110.004 81.4742 119.696 79.3748ZM324.843 74.7574C298.645 68.427 266.279 64.7496 239.576 72.3469C232.812 74.2711 226.897 77.2992 222.399 80.9235M222.399 80.9235C215.548 86.4437 211.982 93.3472 213.71 99.8413C216.414 110.001 226.665 119.64 245.66 121.09C255.561 121.846 264.787 120.035 268.233 114.293C273.498 105.52 260.278 94.755 248.788 89.6939C240.844 86.1947 231.924 83.2578 222.399 80.9235ZM222.399 80.9235C188.931 72.7215 151.58 70.8736 119.357 79.3068" stroke="#F9F9F9" stroke-width="4" stroke-linecap="round"/>
<path d="M309.518 58.6357C314.695 62.1521 326.112 70.4525 330.361 75.5237" stroke="#F9F9F9" stroke-width="4" stroke-linecap="round"/>
<path d="M330.367 75.5244C322.934 77.3067 306.106 81.7228 298.249 85.1293" stroke="#F9F9F9" stroke-width="4" stroke-linecap="round"/>
</svg>
