<svg width="17" height="30" viewBox="0 0 17 30" fill="none" xmlns="http://www.w3.org/2000/svg">
<g clip-path="url(#clip0_1_8917)">
<path d="M3.747 12.0772C3.747 12.0772 1.8438 8.65444 6.17474 6.58388C10.506 4.51333 9.6528 2.39278 9.62016 1.09058C9.62016 1.09058 13.2621 2.35955 13.2621 6.14971C13.2621 10.5408 3.747 12.0772 3.747 12.0772Z" fill="white"/>
<path d="M10.5722 2.52629C10.5722 2.52629 11.5236 5.99936 9.66988 7.28479C7.81611 8.57054 5.1418 8.95439 4.15771 10.474C4.15771 10.474 5.55224 11.192 7.76699 10.6243C9.98174 10.0566 13.2627 6.68385 13.2627 6.68385C13.2627 6.68385 14.6737 1.30731 10.5722 2.52629Z" fill="#5A85FF"/>
<path d="M10.6043 2.62713C10.6043 2.62713 12.3433 4.848 11.9332 6.33375C11.5231 7.81981 9.66934 8.78815 9.39043 8.85493C9.11153 8.9217 5.10862 9.79005 4.17334 10.4745C4.17334 10.4745 8.56988 10.441 9.80055 9.7565C11.0474 9.07201 13.7214 7.26854 13.1144 5.8328C12.5075 4.39706 11.9497 1.9091 10.6043 2.62713Z" fill="#507BE1"/>
<path d="M3.90161 12.7874C3.83664 12.7738 3.79354 12.7738 3.74822 12.7738C3.50196 12.7738 3.27566 12.6412 3.15776 12.4277C3.01387 12.1467 2.33373 10.6907 2.84336 9.07527C3.25665 7.78048 4.28669 6.73085 5.90402 5.95637C9.25848 4.36999 9.12283 2.94876 9.00303 1.69495C8.98654 1.47818 8.97006 1.29367 8.95358 1.10917C8.95422 0.89724 9.05817 0.680153 9.23249 0.543708C9.3488 0.459518 9.49364 0.411133 9.63595 0.411133C9.71233 0.411133 9.78681 0.424681 9.85717 0.451454C10.5595 0.723377 13.9634 2.2417 13.9634 6.18378C13.9634 11.0397 4.6331 12.6674 3.90161 12.7874ZM10.4036 2.58684C10.3478 3.90388 9.8521 5.61961 6.48211 7.21309C5.22039 7.82048 4.43438 8.58529 4.14502 9.48686C3.94947 10.1197 4.02617 10.7323 4.12505 11.1352L4.16435 11.2952L4.32314 11.2626C5.16841 11.0884 12.58 9.46557 12.58 6.1512C12.58 4.26903 11.543 3.10263 10.673 2.45524L10.4172 2.26492L10.4036 2.58684Z" fill="#4C2F1B"/>
<path d="M2.05541 16.851C2.05541 16.851 -0.0937414 13.1441 4.49994 11.3077C8.86384 9.55456 9.88089 11.2742 13.0144 7.28369C13.4575 8.10172 15.0485 10.3726 12.8341 13.2276C11.8659 14.4801 4.33576 16.9178 2.05541 16.851Z" fill="white"/>
<path d="M12.8512 8.38818C12.8512 8.38818 13.5405 11.7945 7.5032 12.2787C3.46733 12.5961 1.99072 15.7685 1.99072 15.7685L11.2925 14.1154L13.983 11.4271L12.8512 8.38818Z" fill="#FF5C68"/>
<path d="M6.20764 29.008C5.79752 29.008 5.43653 28.7074 5.37092 28.29L4.45212 22.7299C4.403 22.4796 4.48508 22.2125 4.64926 22.0287C4.81311 21.8283 5.04289 21.728 5.30532 21.728H10.9325C11.1785 21.728 11.4247 21.8448 11.5886 22.0287C11.7528 22.2293 11.8184 22.4796 11.7857 22.7299L10.8669 28.29C10.8013 28.7074 10.4403 29.008 10.0302 29.008H6.20764Z" fill="#FFCD8A"/>
<path d="M6.20739 29.7023C5.45689 29.7023 4.80241 29.1401 4.68515 28.395L3.76603 22.8333C3.69123 22.361 3.81452 21.8949 4.1042 21.5559C4.40751 21.2011 4.83918 20.9976 5.28859 20.9976H10.9158C11.3655 20.9976 11.7972 21.2011 12.1002 21.5559C12.3892 21.9091 12.5135 22.3756 12.4384 22.8336L11.5196 28.3934C11.3855 29.1507 10.745 29.702 9.997 29.702H6.20739V29.7023ZM6.06382 28.294H10.1403L11.1161 22.3891H5.08797L6.06382 28.294Z" fill="#4C2F1B"/>
<path d="M12.5747 24.1183L8.16166 24.3638H8.05834L3.64531 24.118C3.21428 24.1006 2.8349 23.767 2.76613 23.3283L2.02513 19.3811C1.92181 18.7847 2.36996 18.2234 2.95597 18.2234H13.2643C13.8678 18.2234 14.3159 18.7847 14.1952 19.3811L13.4542 23.3286C13.3677 23.7673 13.0057 24.0831 12.5747 24.1183Z" fill="#FFCD8A"/>
<path d="M1.23682 20.5441L1.63584 19.9725L8.68324 25.07L8.28422 25.6416L1.23682 20.5441ZM3.55014 20.0406L3.94916 19.469L10.9962 24.5665L10.5972 25.1381L3.55014 20.0406ZM6.19497 19.6132L6.59431 19.0416L13.6414 24.1391L13.2424 24.7107L6.19497 19.6132ZM8.03099 18.4932L8.43001 17.9216L14.5412 22.3421L14.1418 22.9137L8.03099 18.4932Z" fill="#FFBB71"/>
<path d="M7.104 25.0804L14.152 19.9839L14.5511 20.5558L7.50302 25.6523L7.104 25.0804ZM4.79892 24.5601L13.5185 18.2546L13.9175 18.8265L5.19794 25.1317L4.79892 24.5601ZM2.12873 24.144L9.17645 19.0475L9.57547 19.6191L2.52775 24.7156L2.12873 24.144ZM1.23877 22.3512L7.35058 17.9314L7.7496 18.5033L1.63779 22.9231L1.23877 22.3512Z" fill="#FFBB71"/>
<path d="M7.94773 25.7621L3.75719 25.5289C2.63714 25.4822 1.70408 24.6535 1.48634 23.5142L0.781157 19.7579C0.64424 19.0463 0.835036 18.3005 1.3041 17.7118C1.78363 17.1293 2.45395 16.8074 3.19019 16.8074H13.0174C13.7464 16.8074 14.4319 17.1438 14.8506 17.7073C15.3276 18.2712 15.5168 19.0157 15.377 19.7579L14.6715 23.5148C14.457 24.638 13.5233 25.4663 12.4007 25.5289L8.2054 25.7621H7.94773ZM3.20636 18.1986C2.89512 18.1986 2.59974 18.3405 2.39532 18.5886C2.18519 18.8437 2.09708 19.1769 2.15349 19.5031L2.85963 23.2619C2.93601 23.748 3.36482 24.1335 3.85608 24.1535L8.05327 24.387L8.16103 24.3874L12.3703 24.1532C12.8618 24.1132 13.2688 23.7474 13.3639 23.2632L14.0694 19.5053C14.134 19.1863 14.0541 18.8557 13.85 18.6008C13.6453 18.3454 13.3417 18.1986 13.0171 18.1986H3.20636Z" fill="#4C2F1B"/>
<path d="M12.8694 8.85474C12.8694 8.85474 13.2469 11.3091 11.672 12.4446C9.73615 14.1477 4.19103 13.9474 2.81299 15.0325C2.81299 15.0325 11.5078 15.2164 12.5249 12.6781C13.5419 10.1402 13.87 8.97151 12.8694 8.85474Z" fill="#F93D53"/>
<path d="M2.04002 17.5658C1.81056 17.5658 1.59979 17.4371 1.46193 17.2126C1.44576 17.1881 0.448997 15.4465 1.06829 13.6031C1.49299 12.3222 2.55821 11.3351 4.23417 10.669C5.90633 10.0081 7.14048 9.84324 8.13186 9.71067C9.82715 9.48874 10.7596 9.36649 12.5896 7.04272C12.7167 6.87821 12.903 6.78467 13.1017 6.78467C13.1265 6.78467 13.1512 6.78596 13.1756 6.78918C13.4117 6.8037 13.6152 6.94014 13.7166 7.14594C13.741 7.18562 13.7553 7.21142 13.7695 7.23691C13.7882 7.27013 13.8072 7.30303 13.8256 7.33174C14.3435 8.22686 15.7323 10.6258 13.3743 13.6747C12.1744 15.2214 4.50959 17.5661 2.12211 17.5661H2.04002V17.5658ZM12.8273 8.88651C11.0952 10.7316 9.80814 10.8971 8.31853 11.0887C7.26409 11.2161 6.19537 11.3793 4.73366 11.9677C3.45102 12.4725 2.65044 13.1763 2.35537 14.0595C2.15538 14.6292 2.17694 15.2962 2.42066 16.0397L2.46313 16.1697L2.59719 16.1572C5.23316 15.9088 11.5668 13.726 12.2787 12.8205C13.6409 11.0458 13.405 9.75938 13.109 8.94586L13.0149 8.68716L12.8273 8.88651Z" fill="#4C2F1B"/>
<path d="M13.6879 11.927C13.6879 11.927 12.7035 14.1643 8.84826 14.9491C5.74766 15.5668 1.10486 15.1662 1.08838 18.2051C1.08838 21.0937 12.9003 20.5927 14.3604 17.988C16.4769 14.1979 13.6879 11.927 13.6879 11.927Z" fill="white"/>
<path d="M1.89209 18.2225C3.74585 16.4862 8.6346 17.5548 10.3571 16.92C12.6866 16.0517 13.6875 15.7678 13.8843 13.1631C13.8843 13.1631 16.8702 16.6862 13.0476 19.057C10.8329 20.3931 3.22069 21.3447 1.89209 18.2225Z" fill="#FFF383"/>
<path d="M13.9194 13.1475C13.9194 13.1475 17.2827 20.1768 2.81299 18.8914C2.82947 18.8911 18.8741 21.8129 13.9194 13.1475Z" fill="#F6E259"/>
<path d="M6.23915 20.7854C4.5783 20.7854 3.19759 20.5983 2.24563 20.2448C1.04016 19.8236 0.404785 19.1179 0.404785 18.2032C0.404785 15.2644 3.69892 14.8835 6.34563 14.5771L6.422 14.5681C7.34385 14.4745 8.08983 14.37 8.6989 14.2488C11.9477 13.5908 13.2286 11.8066 13.3389 11.5221L13.3246 11.5773C13.4283 11.3931 13.5975 11.2686 13.8012 11.227C13.838 11.2193 13.8757 11.2161 13.9131 11.2161C14.0693 11.2161 14.2338 11.2796 14.3647 11.3909C15.5952 12.4668 17.2861 15.3215 14.8657 18.4129C13.6929 19.9546 9.54628 20.7854 6.23915 20.7854ZM13.844 13.1573C13.0236 14.0095 11.5139 15.1299 8.97904 15.6298C8.2131 15.7821 7.33783 15.883 6.58267 15.9614C3.68593 16.2887 1.78804 16.6216 1.78804 18.2029C1.78804 18.5322 2.37271 18.7912 2.72129 18.9167C3.56772 19.2192 4.7583 19.3792 6.16468 19.3792C9.11594 19.3792 12.9919 18.6248 13.8351 17.5421C15.3214 15.6201 14.642 13.9846 14.1048 13.1809L13.9885 13.0067L13.844 13.1573Z" fill="#4C2F1B"/>
</g>
<defs>
<clipPath id="clip0_1_8917">
<rect width="15.6908" height="29.2895" fill="white" transform="translate(0.404785 0.410889)"/>
</clipPath>
</defs>
</svg>
