<svg viewBox="0 0 1149 289" fill="none" xmlns="http://www.w3.org/2000/svg">
<mask id="mask0_28_4852" style="mask-type:alpha" maskUnits="userSpaceOnUse" x="4" y="0" width="1215" height="281">
<rect opacity="0.8" x="4.53613" y="1.41882" width="1213" height="279" rx="29.5" fill="#6C5FBC" stroke="black"/>
</mask>
<g mask="url(#mask0_28_4852)">
<g opacity="0.25">
<path d="M486.718 139.789C482.834 143.555 477.545 145.845 471.71 145.802C465.914 145.76 460.625 143.427 456.683 139.617" stroke="#1C186C" stroke-width="4.63957" stroke-linecap="round" stroke-linejoin="round"/>
<path d="M457.62 148.455C461.816 151.238 466.637 152.821 471.75 152.864C477.741 152.907 483.303 150.81 487.929 147.171C489.802 145.695 490.329 142.805 489.119 140.58L487.851 138.247L482.601 128.745C482.601 128.745 478.873 121.982 475.36 115.604C473.662 112.522 469.72 112.48 468.042 115.519L455.551 138.076L454.322 140.301C453.112 142.506 453.658 145.438 455.571 146.936C456.215 147.492 456.917 147.985 457.62 148.455Z" stroke="#1C186C" stroke-width="4.63957" stroke-linecap="round" stroke-linejoin="round"/>
<path d="M464.744 135.358C464.276 135.144 463.749 135.144 463.28 135.358C463.027 135.465 462.831 135.615 462.636 135.808C462.285 136.214 462.07 136.749 462.07 137.306C462.07 137.883 462.265 138.397 462.636 138.804C463.007 139.21 463.475 139.424 464.002 139.424C464.529 139.424 464.998 139.21 465.369 138.804C465.739 138.397 465.935 137.862 465.935 137.306C465.935 136.749 465.72 136.214 465.369 135.808C465.193 135.594 464.978 135.444 464.744 135.358Z" fill="#201D67"/>
<path d="M472.433 137.455C471.965 137.241 471.438 137.241 470.97 137.455C470.736 137.562 470.521 137.712 470.326 137.905C469.974 138.311 469.76 138.846 469.76 139.403C469.76 139.981 469.955 140.494 470.326 140.901C470.697 141.307 471.165 141.521 471.692 141.521C472.219 141.521 472.687 141.307 473.058 140.901C473.429 140.494 473.624 139.981 473.624 139.403C473.624 138.846 473.409 138.311 473.058 137.905C472.882 137.712 472.687 137.562 472.433 137.455Z" fill="#201D67"/>
<path d="M480.787 135.786C480.065 134.994 478.777 134.994 478.055 135.786C477.704 136.192 477.489 136.727 477.489 137.284C477.489 137.862 477.684 138.375 478.055 138.782C478.426 139.189 478.894 139.403 479.421 139.403C479.675 139.403 479.929 139.338 480.143 139.231C480.378 139.124 480.592 138.975 480.787 138.782C481.158 138.375 481.353 137.862 481.353 137.284C481.334 136.749 481.119 136.192 480.787 135.786Z" fill="#201D67"/>
<path d="M477.333 128.038C477.236 127.76 477.099 127.546 476.923 127.332C476.201 126.54 474.913 126.54 474.191 127.332C474.015 127.546 473.879 127.76 473.781 128.038C473.684 128.295 473.625 128.573 473.625 128.83C473.625 129.108 473.684 129.387 473.781 129.622C473.879 129.879 474.015 130.114 474.191 130.328C474.562 130.735 475.03 130.949 475.557 130.949C475.811 130.949 476.065 130.885 476.279 130.778C476.513 130.671 476.728 130.521 476.923 130.328C477.294 129.922 477.489 129.408 477.489 128.83C477.489 128.573 477.431 128.295 477.333 128.038Z" fill="#201D67"/>
<path d="M469.624 128.038C469.526 127.781 469.39 127.546 469.214 127.332C468.473 126.54 467.185 126.54 466.482 127.332C466.306 127.546 466.17 127.76 466.072 128.038C465.975 128.295 465.916 128.573 465.916 128.83C465.916 129.408 466.111 129.922 466.482 130.328C466.677 130.521 466.892 130.671 467.126 130.778C467.36 130.885 467.614 130.949 467.868 130.949C468.395 130.949 468.863 130.735 469.234 130.328C469.409 130.114 469.546 129.879 469.644 129.622C469.761 129.365 469.8 129.087 469.8 128.83C469.78 128.573 469.741 128.295 469.624 128.038Z" fill="#201D67"/>
<path d="M470.345 121.897C470.716 122.303 471.184 122.517 471.711 122.517C471.965 122.517 472.219 122.453 472.433 122.346C472.668 122.239 472.882 122.089 473.078 121.897C473.253 121.683 473.39 121.447 473.487 121.191C473.585 120.934 473.643 120.656 473.643 120.399C473.643 119.821 473.429 119.307 473.078 118.901C472.531 118.323 471.692 118.109 470.97 118.451C470.716 118.558 470.521 118.708 470.326 118.901C469.974 119.307 469.76 119.842 469.76 120.399C469.76 120.677 469.818 120.955 469.916 121.191C470.033 121.447 470.17 121.683 470.345 121.897Z" fill="#201D67"/>
<path d="M952.255 45.1509C949.893 50.6297 944.819 54.4178 938.925 54.4178C930.787 54.4178 924.171 47.1627 924.171 38.2383C924.171 30.2983 929.401 23.6852 936.31 22.3156C936.544 27.1309 939.764 31.0902 943.98 31.9676C943.902 32.5455 943.843 33.1447 943.843 33.7439C943.843 39.3511 947.454 44.0381 952.255 45.1509Z" stroke="#1C186C" stroke-width="4.63957" stroke-linecap="round" stroke-linejoin="round"/>
<path d="M932.817 29.4211C931.626 29.4211 930.65 30.4912 930.65 31.7967C930.65 33.1022 931.626 34.1723 932.817 34.1723C934.007 34.1723 934.983 33.1022 934.983 31.7967C934.983 30.4698 934.007 29.4211 932.817 29.4211Z" fill="#201D67"/>
<path d="M928.035 17.0297C926.845 17.0297 925.869 18.0997 925.869 19.4052C925.869 20.7107 926.845 21.7808 928.035 21.7808C929.226 21.7808 930.202 20.7107 930.202 19.4052C930.182 18.0783 929.226 17.0297 928.035 17.0297Z" fill="#201D67"/>
<path d="M939.12 36.7183C937.93 36.7183 936.954 37.7883 936.954 39.0938C936.954 40.3993 937.93 41.4694 939.12 41.4694C940.311 41.4694 941.287 40.3993 941.287 39.0938C941.287 37.7669 940.311 36.7183 939.12 36.7183Z" fill="#201D67"/>
<path d="M940.995 46.2426C940.995 46.2426 940.585 46.4994 940.058 46.8418C939.55 47.1628 939.121 47.441 939.121 47.441C939.121 47.441 939.531 47.1842 940.058 46.8418C940.565 46.4994 940.995 46.2426 940.995 46.2426Z" stroke="#1C186C" stroke-width="4.63957" stroke-linecap="round" stroke-linejoin="round"/>
<path d="M931.06 40.1007C931.06 40.1007 931.508 40.3147 932.055 40.5715C932.601 40.8284 933.05 41.0424 933.05 41.0424C933.05 41.0424 932.601 40.8284 932.055 40.5715C931.508 40.3147 931.06 40.1007 931.06 40.1007Z" stroke="#1C186C" stroke-width="4.63957" stroke-linecap="round" stroke-linejoin="round"/>
<path d="M921.38 26.6391C921.38 26.6391 921.731 26.2753 922.161 25.8258C922.59 25.3764 922.941 25.0126 922.941 25.0126C922.941 25.0126 922.59 25.3764 922.161 25.8258C921.731 26.2753 921.38 26.6391 921.38 26.6391Z" stroke="#1C186C" stroke-width="4.63957" stroke-linecap="round" stroke-linejoin="round"/>
<path d="M919.408 38.5597C917.378 36.0343 916.148 32.7385 916.148 29.1216C916.148 21.2245 921.984 14.8254 929.185 14.8254C935.001 14.8254 939.939 18.9987 941.617 24.7771" stroke="#1C186C" stroke-width="4.63957" stroke-linecap="round" stroke-linejoin="round"/>
<path d="M550.941 203.415C549.687 203.109 548.384 203.153 547.15 203.542C545.916 203.93 544.79 204.652 543.876 205.64C543.488 206.079 543.271 206.666 543.271 207.277C543.271 207.889 543.488 208.476 543.876 208.915L546.1 211.44" stroke="#1C186C" stroke-width="4.63957" stroke-linecap="round" stroke-linejoin="round"/>
<path d="M565.499 219.658C565.767 221.05 565.715 222.492 565.347 223.856C564.979 225.22 564.307 226.462 563.391 227.47C563.197 227.684 562.966 227.855 562.712 227.971C562.457 228.088 562.184 228.148 561.908 228.148C561.632 228.148 561.359 228.088 561.105 227.971C560.85 227.855 560.619 227.684 560.425 227.47L558.161 224.944" stroke="#1C186C" stroke-width="4.63957" stroke-linecap="round" stroke-linejoin="round"/>
<path d="M547.643 225.458C548.447 226.854 548.874 228.472 548.872 230.123C548.872 231.238 548.67 232.342 548.278 233.37C547.886 234.399 547.312 235.332 546.589 236.116C546.452 236.251 546.275 236.326 546.091 236.326C545.907 236.326 545.73 236.251 545.593 236.116C544.955 235.407 544.445 234.572 544.091 233.655C543.768 232.984 543.544 232.262 543.427 231.515C543.383 231.059 543.383 230.6 543.427 230.145C543.778 228.064 544.745 226.168 546.179 224.752C544.85 226.285 543.104 227.307 541.202 227.662C540.787 227.706 540.369 227.706 539.953 227.662C539.271 227.516 538.612 227.256 538.002 226.892C537.162 226.455 536.406 225.844 535.777 225.094C535.653 224.945 535.585 224.75 535.585 224.548C535.585 224.347 535.653 224.152 535.777 224.003C537.237 222.437 539.199 221.561 541.241 221.563C542.739 221.573 544.202 222.056 545.457 222.954" stroke="#1C186C" stroke-width="4.63957" stroke-linecap="round" stroke-linejoin="round"/>
<path d="M570.028 198.684C569.797 198.394 569.535 198.136 569.247 197.914C568.444 197.353 567.548 196.973 566.609 196.797C565.671 196.621 564.71 196.651 563.783 196.887C561.591 197.25 559.476 198.04 557.538 199.219C553.893 201.15 550.831 204.188 548.716 207.973C546.841 211.777 545.78 216 545.613 220.321C545.613 220.621 545.281 222.868 545.496 223.018L547.662 225.458C547.799 225.693 549.829 225.458 550.102 225.351C554.062 225.237 557.944 224.116 561.441 222.076C564.91 219.829 567.705 216.519 569.482 212.553C571.199 208.636 573.151 202.408 570.028 198.684Z" stroke="#1C186C" stroke-width="4.63957" stroke-linecap="round" stroke-linejoin="round"/>
<path d="M556.442 201.167C557.234 204.088 558.66 206.754 560.599 208.936C562.546 211.113 564.953 212.73 567.606 213.645" stroke="#1C186C" stroke-width="4.63957" stroke-linecap="round" stroke-linejoin="round"/>
<path d="M564.875 201.231C564.693 201.024 564.475 200.859 564.234 200.747C563.992 200.634 563.733 200.576 563.47 200.576C563.208 200.576 562.948 200.634 562.707 200.747C562.465 200.859 562.247 201.024 562.065 201.231C561.799 201.533 561.62 201.915 561.551 202.328C561.481 202.741 561.524 203.167 561.674 203.553C561.824 203.94 562.074 204.27 562.393 204.501C562.713 204.733 563.087 204.856 563.47 204.856C563.853 204.856 564.228 204.733 564.547 204.501C564.866 204.27 565.116 203.94 565.266 203.553C565.416 203.167 565.459 202.741 565.389 202.328C565.32 201.915 565.141 201.533 564.875 201.231Z" fill="#201D67"/>
<path d="M748.582 214.266L756.603 238.471L764.624 214.266" stroke="#1C186C" stroke-width="4.63957" stroke-linecap="round" stroke-linejoin="round"/>
<path d="M768.644 213.174C768.313 213.174 768.02 213.195 767.747 213.238C765.6 213.623 765.307 215.378 762.614 215.378C759.589 215.378 759.589 213.174 756.603 213.174C753.578 213.174 753.578 215.378 750.592 215.378C747.899 215.378 747.626 213.645 745.459 213.238C745.206 213.195 744.893 213.174 744.562 213.174" stroke="#1C186C" stroke-width="4.63957" stroke-linecap="round" stroke-linejoin="round"/>
<path d="M766.635 209.879C766.635 211.034 766.479 212.19 766.147 213.239C764.293 213.624 764.059 215.379 761.756 215.379C759.16 215.379 759.16 213.174 756.604 213.174C754.008 213.174 754.008 215.379 751.451 215.379C749.148 215.379 748.895 213.645 747.06 213.239C746.748 212.19 746.572 211.034 746.572 209.879C746.572 203.801 751.061 198.878 756.604 198.878C762.146 198.878 766.635 203.801 766.635 209.879Z" stroke="#1C186C" stroke-width="4.63957" stroke-linecap="round" stroke-linejoin="round"/>
<path d="M766.635 216.471H746.572" stroke="#1C186C" stroke-width="4.63957" stroke-linecap="round" stroke-linejoin="round"/>
<path d="M955.084 217.388H940.642V219.657H955.084V217.388Z" stroke="#1C186C" stroke-width="4.63957" stroke-linecap="round" stroke-linejoin="round"/>
<path d="M963.827 199.283C965.154 199.283 966.169 200.653 965.857 202.065C963.808 210.861 956.528 217.367 947.863 217.367C939.198 217.367 931.918 210.861 929.869 202.065C929.537 200.653 930.552 199.283 931.899 199.283H963.827V199.283Z" stroke="#1C186C" stroke-width="4.63957" stroke-linecap="round" stroke-linejoin="round"/>
<path d="M940.075 199.283C942.349 199.283 944.193 197.261 944.193 194.767C944.193 192.273 942.349 190.251 940.075 190.251C937.801 190.251 935.957 192.273 935.957 194.767C935.957 197.261 937.801 199.283 940.075 199.283Z" stroke="#1C186C" stroke-width="4.63957" stroke-linecap="round" stroke-linejoin="round"/>
<path d="M955.649 198.941C957.923 198.941 959.767 196.92 959.767 194.426C959.767 191.932 957.923 189.91 955.649 189.91C953.375 189.91 951.531 191.932 951.531 194.426C951.531 196.92 953.375 198.941 955.649 198.941Z" stroke="#1C186C" stroke-width="4.63957" stroke-linecap="round" stroke-linejoin="round"/>
<path d="M948.507 198.963C950.221 198.963 951.61 197.439 951.61 195.56C951.61 193.681 950.221 192.157 948.507 192.157C946.794 192.157 945.404 193.681 945.404 195.56C945.404 197.439 946.794 198.963 948.507 198.963Z" stroke="#1C186C" stroke-width="4.63957" stroke-linecap="round" stroke-linejoin="round"/>
<path d="M937.832 190.552L931.353 183.446" stroke="#1C186C" stroke-width="4.63957" stroke-linecap="round" stroke-linejoin="round"/>
<path d="M932.406 206.026H963.32" stroke="#1C186C" stroke-width="4.63957" stroke-linecap="round" stroke-linejoin="round"/>
<path d="M871.749 111.667H836.62C836.62 115.219 839.235 118.087 842.475 118.087H865.894C869.134 118.087 871.749 115.219 871.749 111.667Z" stroke="#1C186C" stroke-width="4.63957" stroke-linecap="round" stroke-linejoin="round"/>
<path d="M854.185 92.4052C845.559 92.4052 838.572 100.067 838.572 109.526V111.666H869.798V109.526C869.798 100.067 862.811 92.4052 854.185 92.4052Z" stroke="#1C186C" stroke-width="4.63957" stroke-linecap="round" stroke-linejoin="round"/>
<path d="M854.185 94.0103C856.071 94.0103 857.6 92.3335 857.6 90.265C857.6 88.1966 856.071 86.5198 854.185 86.5198C852.299 86.5198 850.77 88.1966 850.77 90.265C850.77 92.3335 852.299 94.0103 854.185 94.0103Z" fill="#201D67"/>
<path d="M731.657 81.8068C737.063 82.1706 742.469 84.7602 746.743 89.5113C750.978 94.2196 753.301 100.212 753.652 106.204" stroke="#1C186C" stroke-width="4.63957" stroke-linecap="round" stroke-linejoin="round"/>
<path d="M755.875 107.595L753.474 108.237L729.118 114.765C725.839 115.642 722.97 112.432 723.79 108.794L725.507 101.089L725.624 100.597L727.127 93.8982L727.264 93.2562L729.801 82.0204L730.425 79.281C731.011 76.6486 733.333 74.9579 735.714 75.3859C741.569 76.4346 747.073 79.388 751.464 84.2676C755.835 89.1043 758.47 95.2037 759.426 101.688C759.817 104.342 758.255 106.953 755.875 107.595Z" stroke="#1C186C" stroke-width="4.63957" stroke-linecap="round" stroke-linejoin="round"/>
<path d="M741.161 100.746C742.885 100.746 744.283 99.1941 744.283 97.2793C744.283 95.3645 742.885 93.8123 741.161 93.8123C739.436 93.8123 738.038 95.3645 738.038 97.2793C738.038 99.1941 739.436 100.746 741.161 100.746Z" stroke="#1C186C" stroke-width="4.63957" stroke-linecap="round" stroke-linejoin="round"/>
<path d="M729.605 99.4421C728.532 100.641 726.99 101.026 725.624 100.555L727.576 91.8231C728.317 92.0157 729.02 92.401 729.605 93.043C731.206 94.8193 731.206 97.6871 729.605 99.4421Z" stroke="#1C186C" stroke-width="4.63957" stroke-linecap="round" stroke-linejoin="round"/>
<path d="M732.065 111.64C731.772 110.399 732.065 109.029 732.924 108.066C734.231 106.611 736.339 106.611 737.647 108.066C738.076 108.537 738.369 109.115 738.506 109.736" stroke="#1C186C" stroke-width="4.63957" stroke-linecap="round" stroke-linejoin="round"/>
<path d="M653.463 113.613L633.478 135.528C631.351 137.861 631.351 141.627 633.478 143.96C635.606 146.293 639.04 146.293 641.168 143.96L661.152 122.045C663.279 119.712 663.279 115.945 661.152 113.613C659.025 111.28 655.59 111.28 653.463 113.613Z" stroke="#1C186C" stroke-width="4.63957" stroke-linecap="round" stroke-linejoin="round"/>
<path d="M637.674 138.439C639.977 135.913 640.796 136.812 643.119 134.287C645.422 131.761 644.602 130.862 646.905 128.316C649.208 125.79 650.047 126.689 652.35 124.164C654.653 121.638 653.833 120.718 656.136 118.193" stroke="#1C186C" stroke-width="4.63957" stroke-linecap="round" stroke-linejoin="round"/>
<path d="M646.553 111.088L631.174 127.952C628.618 130.756 628.618 135.272 631.174 138.075L655.765 111.109C653.228 108.284 649.09 108.284 646.553 111.088Z" stroke="#1C186C" stroke-width="4.63957" stroke-linecap="round" stroke-linejoin="round"/>
<path d="M648.076 146.485L663.455 129.621C666.011 126.817 666.011 122.302 663.455 119.498L638.864 146.464C641.401 149.289 645.539 149.289 648.076 146.485Z" stroke="#1C186C" stroke-width="4.63957" stroke-linecap="round" stroke-linejoin="round"/>
<path d="M549.733 65.0541H530.217C526.743 65.0541 523.933 61.9723 523.933 58.1628V54.0537H556.017V58.1628C556.017 61.9723 553.207 65.0541 549.733 65.0541Z" stroke="#1C186C" stroke-width="4.63957" stroke-linecap="round" stroke-linejoin="round"/>
<path d="M555.022 47.4615H524.928C523.269 47.4615 521.923 48.9383 521.923 50.7574C521.923 52.5765 523.269 54.0532 524.928 54.0532H555.022C556.681 54.0532 558.028 52.5765 558.028 50.7574C558.028 48.9383 556.681 47.4615 555.022 47.4615Z" stroke="#1C186C" stroke-width="4.63957" stroke-linecap="round" stroke-linejoin="round"/>
<path d="M541.009 29.8698H538.941C530.646 29.8698 523.933 37.2319 523.933 46.3275V47.4618H556.017V46.3275C556.017 37.2319 549.304 29.8698 541.009 29.8698Z" stroke="#1C186C" stroke-width="4.63957" stroke-linecap="round" stroke-linejoin="round"/>
<path d="M523.718 54.5886C524.479 55.4875 525.025 56.7074 526.45 56.7074C527.875 56.7074 528.421 55.4875 529.182 54.5886" stroke="#1C186C" stroke-width="4.63957" stroke-linecap="round" stroke-linejoin="round"/>
<path d="M542.043 54.5887C542.804 55.4876 543.351 56.7075 544.775 56.7075C546.219 56.7075 546.766 55.4876 547.527 54.5887" stroke="#1C186C" stroke-width="4.63957" stroke-linecap="round" stroke-linejoin="round"/>
<path d="M553.967 56.6861C552.542 56.6861 551.996 55.4662 551.234 54.5674" stroke="#1C186C" stroke-width="4.63957" stroke-linecap="round" stroke-linejoin="round"/>
<path d="M532.89 54.5887C533.651 55.4876 534.197 56.7075 535.622 56.7075C537.047 56.7075 537.593 55.4876 538.354 54.5887" stroke="#1C186C" stroke-width="4.63957" stroke-linecap="round" stroke-linejoin="round"/>
<path d="M1043.96 94.8461C1040.07 98.6128 1034.78 100.903 1028.95 100.86C1023.15 100.817 1017.86 98.4844 1013.92 94.6749" stroke="#1C186C" stroke-width="4.63957" stroke-linecap="round" stroke-linejoin="round"/>
<path d="M1014.86 103.513C1019.05 106.295 1023.87 107.879 1028.99 107.921C1034.98 107.964 1040.54 105.867 1045.17 102.229C1047.04 100.752 1047.57 97.8628 1046.36 95.637L1045.09 93.3043L1039.84 83.802C1039.84 83.802 1036.11 77.0391 1032.6 70.6615C1030.9 67.5797 1026.96 67.5369 1025.28 70.5759L1012.79 93.133L1011.56 95.3588C1010.35 97.5632 1010.9 100.495 1012.81 101.993C1013.45 102.55 1014.15 103.042 1014.86 103.513Z" stroke="#1C186C" stroke-width="4.63957" stroke-linecap="round" stroke-linejoin="round"/>
<path d="M1021.98 90.4151C1021.51 90.2011 1020.99 90.2011 1020.52 90.4151C1020.26 90.5222 1020.07 90.6719 1019.87 90.8646C1019.52 91.2712 1019.31 91.8062 1019.31 92.3627C1019.31 92.9405 1019.5 93.4541 1019.87 93.8608C1020.24 94.2674 1020.71 94.4814 1021.24 94.4814C1021.77 94.4814 1022.23 94.2674 1022.6 93.8608C1022.98 93.4541 1023.17 92.9191 1023.17 92.3627C1023.17 91.8062 1022.96 91.2712 1022.6 90.8646C1022.43 90.6505 1022.21 90.5008 1021.98 90.4151Z" fill="#201D67"/>
<path d="M1029.67 92.514C1029.2 92.3 1028.67 92.3 1028.21 92.514C1027.97 92.621 1027.76 92.7708 1027.56 92.9634C1027.21 93.3701 1027 93.9051 1027 94.4616C1027 95.0394 1027.19 95.553 1027.56 95.9597C1027.93 96.3663 1028.4 96.5803 1028.93 96.5803C1029.46 96.5803 1029.92 96.3663 1030.29 95.9597C1030.67 95.553 1030.86 95.0394 1030.86 94.4616C1030.86 93.9051 1030.65 93.3701 1030.29 92.9634C1030.12 92.7708 1029.92 92.621 1029.67 92.514Z" fill="#201D67"/>
<path d="M1038.02 90.8432C1037.3 90.0513 1036.01 90.0513 1035.29 90.8432C1034.94 91.2498 1034.73 91.7848 1034.73 92.3413C1034.73 92.9191 1034.92 93.4327 1035.29 93.8394C1035.66 94.246 1036.13 94.46 1036.66 94.46C1036.91 94.46 1037.17 94.3958 1037.38 94.2888C1037.61 94.1818 1037.83 94.032 1038.02 93.8394C1038.39 93.4327 1038.59 92.9191 1038.59 92.3413C1038.57 91.8062 1038.36 91.2498 1038.02 90.8432Z" fill="#201D67"/>
<path d="M1034.57 83.0971C1034.47 82.8189 1034.33 82.6049 1034.16 82.3909C1033.44 81.599 1032.15 81.599 1031.43 82.3909C1031.25 82.6049 1031.11 82.8189 1031.02 83.0971C1030.92 83.3539 1030.86 83.6322 1030.86 83.889C1030.86 84.1672 1030.92 84.4454 1031.02 84.6808C1031.11 84.9377 1031.25 85.1731 1031.43 85.3871C1031.8 85.7937 1032.27 86.0077 1032.79 86.0077C1033.05 86.0077 1033.3 85.9435 1033.51 85.8365C1033.75 85.7295 1033.96 85.5797 1034.16 85.3871C1034.53 84.9805 1034.72 84.4668 1034.72 83.889C1034.72 83.6322 1034.67 83.3539 1034.57 83.0971Z" fill="#201D67"/>
<path d="M1026.86 83.0971C1026.76 82.8403 1026.62 82.6049 1026.45 82.3909C1025.71 81.599 1024.42 81.599 1023.72 82.3909C1023.54 82.6049 1023.4 82.8189 1023.31 83.0971C1023.21 83.3539 1023.15 83.6322 1023.15 83.889C1023.15 84.4668 1023.35 84.9805 1023.72 85.3871C1023.91 85.5797 1024.13 85.7295 1024.36 85.8365C1024.59 85.9435 1024.85 86.0077 1025.1 86.0077C1025.63 86.0077 1026.1 85.7937 1026.47 85.3871C1026.64 85.1731 1026.78 84.9377 1026.88 84.6808C1027 84.424 1027.03 84.1458 1027.03 83.889C1027.01 83.6322 1026.98 83.3539 1026.86 83.0971Z" fill="#201D67"/>
<path d="M1027.58 76.9538C1027.95 77.3604 1028.42 77.5745 1028.95 77.5745C1029.2 77.5745 1029.46 77.5102 1029.67 77.4032C1029.9 77.2962 1030.12 77.1464 1030.31 76.9538C1030.49 76.7398 1030.63 76.5044 1030.72 76.2475C1030.82 75.9907 1030.88 75.7125 1030.88 75.4557C1030.88 74.8778 1030.67 74.3642 1030.31 73.9576C1029.77 73.3798 1028.93 73.1657 1028.21 73.5081C1027.95 73.6152 1027.76 73.765 1027.56 73.9576C1027.21 74.3642 1027 74.8993 1027 75.4557C1027 75.7339 1027.05 76.0121 1027.15 76.2475C1027.27 76.5044 1027.41 76.7398 1027.58 76.9538Z" fill="#201D67"/>
<path d="M858.575 254.885C856.214 260.364 851.139 264.152 845.246 264.152C837.107 264.152 830.491 256.897 830.491 247.973C830.491 240.033 835.722 233.42 842.63 232.05C842.864 236.865 846.085 240.824 850.3 241.702C850.222 242.28 850.164 242.879 850.164 243.478C850.164 249.085 853.774 253.772 858.575 254.885Z" stroke="#1C186C" stroke-width="4.63957" stroke-linecap="round" stroke-linejoin="round"/>
<path d="M839.136 239.155C837.946 239.155 836.97 240.225 836.97 241.531C836.97 242.836 837.946 243.906 839.136 243.906C840.327 243.906 841.302 242.836 841.302 241.531C841.302 240.204 840.327 239.155 839.136 239.155Z" fill="#201D67"/>
<path d="M834.355 226.763C833.164 226.763 832.188 227.833 832.188 229.139C832.188 230.444 833.164 231.514 834.355 231.514C835.545 231.514 836.521 230.444 836.521 229.139C836.502 227.812 835.545 226.763 834.355 226.763Z" fill="#201D67"/>
<path d="M845.44 246.454C844.249 246.454 843.273 247.524 843.273 248.829C843.273 250.135 844.249 251.205 845.44 251.205C846.63 251.205 847.606 250.135 847.606 248.829C847.606 247.502 846.63 246.454 845.44 246.454Z" fill="#201D67"/>
<path d="M847.314 255.975C847.314 255.975 846.904 256.232 846.377 256.575C845.87 256.896 845.44 257.174 845.44 257.174C845.44 257.174 845.85 256.917 846.377 256.575C846.885 256.232 847.314 255.975 847.314 255.975Z" stroke="#1C186C" stroke-width="4.63957" stroke-linecap="round" stroke-linejoin="round"/>
<path d="M837.382 249.835C837.382 249.835 837.831 250.049 838.377 250.305C838.924 250.562 839.372 250.776 839.372 250.776C839.372 250.776 838.924 250.562 838.377 250.305C837.831 250.049 837.382 249.835 837.382 249.835Z" stroke="#1C186C" stroke-width="4.63957" stroke-linecap="round" stroke-linejoin="round"/>
<path d="M827.701 236.373C827.701 236.373 828.052 236.01 828.482 235.56C828.911 235.111 829.263 234.747 829.263 234.747C829.263 234.747 828.911 235.111 828.482 235.56C828.052 236.01 827.701 236.373 827.701 236.373Z" stroke="#1C186C" stroke-width="4.63957" stroke-linecap="round" stroke-linejoin="round"/>
<path d="M825.73 248.294C823.7 245.769 822.471 242.473 822.471 238.856C822.471 230.959 828.306 224.56 835.508 224.56C841.323 224.56 846.261 228.733 847.939 234.512" stroke="#1C186C" stroke-width="4.63957" stroke-linecap="round" stroke-linejoin="round"/>
<path d="M1116.87 158.473C1115.62 158.168 1114.31 158.212 1113.08 158.6C1111.85 158.989 1110.72 159.711 1109.81 160.699C1109.42 161.138 1109.2 161.725 1109.2 162.336C1109.2 162.947 1109.42 163.534 1109.81 163.973L1112.03 166.499" stroke="#1C186C" stroke-width="4.63957" stroke-linecap="round" stroke-linejoin="round"/>
<path d="M1131.43 174.716C1131.7 176.108 1131.64 177.551 1131.28 178.915C1130.91 180.279 1130.24 181.52 1129.32 182.528C1129.13 182.743 1128.9 182.913 1128.64 183.03C1128.39 183.146 1128.11 183.206 1127.84 183.206C1127.56 183.206 1127.29 183.146 1127.03 183.03C1126.78 182.913 1126.55 182.743 1126.35 182.528L1124.09 180.003" stroke="#1C186C" stroke-width="4.63957" stroke-linecap="round" stroke-linejoin="round"/>
<path d="M1113.57 180.517C1114.38 181.913 1114.8 183.531 1114.8 185.182C1114.8 186.297 1114.6 187.401 1114.21 188.429C1113.82 189.458 1113.24 190.391 1112.52 191.175C1112.38 191.31 1112.2 191.385 1112.02 191.385C1111.84 191.385 1111.66 191.31 1111.52 191.175C1110.88 190.466 1110.37 189.631 1110.02 188.714C1109.7 188.043 1109.47 187.321 1109.36 186.573C1109.31 186.118 1109.31 185.659 1109.36 185.204C1109.71 183.123 1110.67 181.227 1112.11 179.811C1110.78 181.344 1109.03 182.365 1107.13 182.721C1106.72 182.764 1106.3 182.764 1105.88 182.721C1105.2 182.575 1104.54 182.315 1103.93 181.951C1103.09 181.514 1102.34 180.903 1101.71 180.153C1101.58 180.003 1101.51 179.809 1101.51 179.607C1101.51 179.406 1101.58 179.211 1101.71 179.061C1103.17 177.496 1105.13 176.62 1107.17 176.622C1108.67 176.632 1110.13 177.115 1111.39 178.013" stroke="#1C186C" stroke-width="4.63957" stroke-linecap="round" stroke-linejoin="round"/>
<path d="M1135.96 153.743C1135.73 153.453 1135.46 153.194 1135.18 152.973C1134.37 152.412 1133.48 152.032 1132.54 151.856C1131.6 151.679 1130.64 151.71 1129.71 151.946C1127.52 152.309 1125.41 153.099 1123.47 154.278C1119.82 156.209 1116.76 159.247 1114.65 163.032C1112.77 166.836 1111.71 171.059 1111.54 175.38C1111.54 175.68 1111.21 177.927 1111.43 178.077L1113.59 180.517C1113.73 180.752 1115.76 180.517 1116.03 180.41C1119.99 180.296 1123.87 179.175 1127.37 177.135C1130.84 174.888 1133.63 171.578 1135.41 167.611C1137.13 163.695 1139.08 157.467 1135.96 153.743Z" stroke="#1C186C" stroke-width="4.63957" stroke-linecap="round" stroke-linejoin="round"/>
<path d="M1122.38 156.226C1123.17 159.147 1124.59 161.813 1126.53 163.995C1128.48 166.172 1130.89 167.789 1133.54 168.703" stroke="#1C186C" stroke-width="4.63957" stroke-linecap="round" stroke-linejoin="round"/>
<path d="M1130.81 156.29C1130.62 156.083 1130.4 155.918 1130.16 155.806C1129.92 155.693 1129.66 155.635 1129.4 155.635C1129.14 155.635 1128.88 155.693 1128.64 155.806C1128.4 155.918 1128.18 156.083 1127.99 156.29C1127.73 156.592 1127.55 156.974 1127.48 157.387C1127.41 157.8 1127.45 158.226 1127.6 158.612C1127.75 158.999 1128 159.328 1128.32 159.56C1128.64 159.792 1129.02 159.915 1129.4 159.915C1129.78 159.915 1130.16 159.792 1130.48 159.56C1130.8 159.328 1131.05 158.999 1131.2 158.612C1131.35 158.226 1131.39 157.8 1131.32 157.387C1131.25 156.974 1131.07 156.592 1130.81 156.29Z" fill="#201D67"/>
<path d="M633.636 243.885C639.042 244.249 644.448 246.839 648.722 251.59C652.957 256.298 655.279 262.29 655.63 268.283" stroke="#1C186C" stroke-width="4.63957" stroke-linecap="round" stroke-linejoin="round"/>
<path d="M657.853 269.674L655.453 270.316L631.096 276.843C627.818 277.721 624.949 274.51 625.768 270.872L627.486 263.168L627.603 262.675L629.106 255.977L629.242 255.335L631.779 244.099L632.404 241.36C632.989 238.727 635.312 237.036 637.693 237.464C643.548 238.513 649.051 241.467 653.442 246.346C657.814 251.183 660.449 257.282 661.405 263.767C661.795 266.421 660.234 269.032 657.853 269.674Z" stroke="#1C186C" stroke-width="4.63957" stroke-linecap="round" stroke-linejoin="round"/>
<path d="M643.138 262.827C644.863 262.827 646.261 261.274 646.261 259.359C646.261 257.445 644.863 255.892 643.138 255.892C641.414 255.892 640.016 257.445 640.016 259.359C640.016 261.274 641.414 262.827 643.138 262.827Z" stroke="#1C186C" stroke-width="4.63957" stroke-linecap="round" stroke-linejoin="round"/>
<path d="M631.585 261.52C630.511 262.718 628.97 263.103 627.604 262.633L629.555 253.901C630.297 254.093 630.999 254.479 631.585 255.121C633.185 256.897 633.185 259.765 631.585 261.52Z" stroke="#1C186C" stroke-width="4.63957" stroke-linecap="round" stroke-linejoin="round"/>
<path d="M634.044 273.72C633.751 272.478 634.044 271.109 634.902 270.146C636.21 268.69 638.318 268.69 639.625 270.146C640.055 270.617 640.347 271.194 640.484 271.815" stroke="#1C186C" stroke-width="4.63957" stroke-linecap="round" stroke-linejoin="round"/>
<path d="M456.055 274.79H436.539C433.065 274.79 430.255 271.708 430.255 267.899V263.789H462.339V267.899C462.339 271.708 459.529 274.79 456.055 274.79Z" stroke="#1C186C" stroke-width="4.63957" stroke-linecap="round" stroke-linejoin="round"/>
<path d="M461.344 257.197H431.25C429.591 257.197 428.244 258.673 428.244 260.493C428.244 262.312 429.591 263.788 431.25 263.788H461.344C463.002 263.788 464.349 262.312 464.349 260.493C464.349 258.673 463.002 257.197 461.344 257.197Z" stroke="#1C186C" stroke-width="4.63957" stroke-linecap="round" stroke-linejoin="round"/>
<path d="M447.332 239.605H445.263C436.968 239.605 430.255 246.967 430.255 256.063V257.197H462.339V256.063C462.339 246.967 455.626 239.605 447.332 239.605Z" stroke="#1C186C" stroke-width="4.63957" stroke-linecap="round" stroke-linejoin="round"/>
<path d="M430.039 264.324C430.8 265.223 431.347 266.443 432.771 266.443C434.196 266.443 434.742 265.223 435.504 264.324" stroke="#1C186C" stroke-width="4.63957" stroke-linecap="round" stroke-linejoin="round"/>
<path d="M448.365 264.324C449.126 265.223 449.673 266.443 451.097 266.443C452.542 266.443 453.088 265.223 453.849 264.324" stroke="#1C186C" stroke-width="4.63957" stroke-linecap="round" stroke-linejoin="round"/>
<path d="M460.29 266.421C458.865 266.421 458.319 265.201 457.558 264.302" stroke="#1C186C" stroke-width="4.63957" stroke-linecap="round" stroke-linejoin="round"/>
<path d="M439.212 264.324C439.973 265.223 440.519 266.443 441.944 266.443C443.369 266.443 443.915 265.223 444.676 264.324" stroke="#1C186C" stroke-width="4.63957" stroke-linecap="round" stroke-linejoin="round"/>
<path d="M1126.53 20.1119H1107.01C1103.53 20.1119 1100.72 17.0301 1100.72 13.2207V9.11157H1132.81V13.2207C1132.81 17.0301 1130 20.1119 1126.53 20.1119Z" stroke="#1C186C" stroke-width="4.63957" stroke-linecap="round" stroke-linejoin="round"/>
<path d="M1131.81 2.5188H1101.72C1100.06 2.5188 1098.71 3.9955 1098.71 5.81463C1098.71 7.63376 1100.06 9.11046 1101.72 9.11046H1131.81C1133.47 9.11046 1134.82 7.63376 1134.82 5.81463C1134.82 3.9955 1133.47 2.5188 1131.81 2.5188Z" stroke="#1C186C" stroke-width="4.63957" stroke-linecap="round" stroke-linejoin="round"/>
<path d="M1117.8 -15.0728H1115.73C1107.44 -15.0728 1100.72 -7.71064 1100.72 1.385V2.51928H1132.81V1.385C1132.81 -7.71064 1126.1 -15.0728 1117.8 -15.0728Z" stroke="#1C186C" stroke-width="4.63957" stroke-linecap="round" stroke-linejoin="round"/>
<path d="M1100.51 9.64478C1101.27 10.5436 1101.82 11.7635 1103.24 11.7635C1104.67 11.7635 1105.22 10.5436 1105.98 9.64478" stroke="#1C186C" stroke-width="4.63957" stroke-linecap="round" stroke-linejoin="round"/>
<path d="M1118.84 9.64514C1119.6 10.544 1120.14 11.7639 1121.57 11.7639C1123.01 11.7639 1123.56 10.544 1124.32 9.64514" stroke="#1C186C" stroke-width="4.63957" stroke-linecap="round" stroke-linejoin="round"/>
<path d="M1130.76 11.7433C1129.34 11.7433 1128.79 10.5234 1128.03 9.62451" stroke="#1C186C" stroke-width="4.63957" stroke-linecap="round" stroke-linejoin="round"/>
<path d="M1109.68 9.64514C1110.45 10.544 1110.99 11.7639 1112.42 11.7639C1113.84 11.7639 1114.39 10.544 1115.15 9.64514" stroke="#1C186C" stroke-width="4.63957" stroke-linecap="round" stroke-linejoin="round"/>
<path d="M1054.32 287.629H1034.8C1031.33 287.629 1028.52 284.547 1028.52 280.738V276.628H1060.6V280.738C1060.6 284.547 1057.79 287.629 1054.32 287.629Z" stroke="#1C186C" stroke-width="4.63957" stroke-linecap="round" stroke-linejoin="round"/>
<path d="M1059.61 270.037H1029.51C1027.86 270.037 1026.51 271.514 1026.51 273.333C1026.51 275.152 1027.86 276.629 1029.51 276.629H1059.61C1061.27 276.629 1062.61 275.152 1062.61 273.333C1062.61 271.514 1061.27 270.037 1059.61 270.037Z" stroke="#1C186C" stroke-width="4.63957" stroke-linecap="round" stroke-linejoin="round"/>
<path d="M1045.6 252.444H1043.53C1035.23 252.444 1028.52 259.807 1028.52 268.902V270.036H1060.6V268.902C1060.6 259.807 1053.89 252.444 1045.6 252.444Z" stroke="#1C186C" stroke-width="4.63957" stroke-linecap="round" stroke-linejoin="round"/>
<path d="M1028.3 277.163C1029.06 278.062 1029.61 279.282 1031.04 279.282C1032.46 279.282 1033.01 278.062 1033.77 277.163" stroke="#1C186C" stroke-width="4.63957" stroke-linecap="round" stroke-linejoin="round"/>
<path d="M1046.63 277.163C1047.39 278.062 1047.94 279.282 1049.36 279.282C1050.81 279.282 1051.35 278.062 1052.11 277.163" stroke="#1C186C" stroke-width="4.63957" stroke-linecap="round" stroke-linejoin="round"/>
<path d="M1058.55 279.26C1057.13 279.26 1056.58 278.04 1055.82 277.141" stroke="#1C186C" stroke-width="4.63957" stroke-linecap="round" stroke-linejoin="round"/>
<path d="M1037.48 277.163C1038.24 278.062 1038.78 279.282 1040.21 279.282C1041.63 279.282 1042.18 278.062 1042.94 277.163" stroke="#1C186C" stroke-width="4.63957" stroke-linecap="round" stroke-linejoin="round"/>
</g>
<g opacity="0.25">
<path d="M267.175 269.782C271.063 266.019 276.354 263.735 282.189 263.784C287.985 263.833 293.272 266.171 297.21 269.985" stroke="#1C186C" stroke-width="4.63957" stroke-linecap="round" stroke-linejoin="round"/>
<path d="M296.282 261.146C292.089 258.359 287.27 256.77 282.157 256.722C276.166 256.673 270.601 258.764 265.972 262.397C264.097 263.872 263.567 266.761 264.774 268.988L266.041 271.322L271.28 280.83C271.28 280.83 275 287.597 278.507 293.978C280.201 297.062 284.143 297.109 285.825 294.072L298.34 271.528L299.572 269.303C300.784 267.1 300.241 264.168 298.33 262.668C297.686 262.111 296.984 261.618 296.282 261.146Z" stroke="#1C186C" stroke-width="4.63957" stroke-linecap="round" stroke-linejoin="round"/>
<path d="M289.145 274.236C289.613 274.45 290.14 274.451 290.609 274.237C290.862 274.131 291.058 273.981 291.253 273.789C291.605 273.382 291.82 272.847 291.821 272.291C291.821 271.713 291.627 271.199 291.256 270.792C290.886 270.385 290.418 270.171 289.891 270.17C289.364 270.17 288.895 270.383 288.524 270.789C288.153 271.196 287.957 271.73 287.956 272.287C287.956 272.843 288.17 273.379 288.521 273.786C288.696 274 288.911 274.15 289.145 274.236Z" fill="#201D67"/>
<path d="M281.457 272.13C281.925 272.345 282.452 272.345 282.921 272.132C283.155 272.025 283.37 271.876 283.566 271.683C283.917 271.277 284.133 270.742 284.133 270.186C284.134 269.608 283.939 269.094 283.569 268.687C283.198 268.28 282.73 268.065 282.203 268.065C281.676 268.064 281.208 268.278 280.836 268.684C280.465 269.09 280.27 269.604 280.269 270.181C280.268 270.738 280.482 271.273 280.833 271.68C281.009 271.873 281.204 272.023 281.457 272.13Z" fill="#201D67"/>
<path d="M273.102 273.791C273.823 274.583 275.111 274.585 275.834 273.794C276.186 273.387 276.401 272.853 276.402 272.296C276.402 271.718 276.208 271.204 275.837 270.797C275.467 270.39 274.999 270.176 274.472 270.175C274.218 270.175 273.964 270.239 273.75 270.346C273.515 270.452 273.3 270.602 273.105 270.794C272.734 271.201 272.538 271.714 272.537 272.292C272.556 272.827 272.771 273.384 273.102 273.791Z" fill="#201D67"/>
<path d="M276.548 281.542C276.645 281.82 276.782 282.034 276.957 282.249C277.679 283.041 278.967 283.043 279.69 282.251C279.865 282.038 280.002 281.824 280.1 281.546C280.198 281.289 280.257 281.011 280.257 280.754C280.257 280.476 280.199 280.197 280.102 279.962C280.005 279.705 279.868 279.469 279.693 279.255C279.322 278.848 278.854 278.634 278.327 278.633C278.074 278.633 277.82 278.697 277.605 278.804C277.371 278.91 277.156 279.06 276.961 279.252C276.589 279.659 276.394 280.172 276.393 280.75C276.393 281.007 276.451 281.285 276.548 281.542Z" fill="#201D67"/>
<path d="M284.257 281.55C284.355 281.807 284.491 282.043 284.666 282.257C285.407 283.049 286.695 283.051 287.399 282.26C287.574 282.046 287.711 281.832 287.809 281.554C287.907 281.297 287.966 281.019 287.966 280.762C287.967 280.184 287.772 279.671 287.402 279.264C287.207 279.071 286.992 278.921 286.758 278.813C286.524 278.706 286.27 278.642 286.017 278.641C285.49 278.641 285.021 278.854 284.65 279.261C284.474 279.474 284.337 279.71 284.239 279.966C284.122 280.223 284.083 280.501 284.082 280.758C284.102 281.015 284.14 281.293 284.257 281.55Z" fill="#201D67"/>
<path d="M203.02 206.087C204.273 206.394 205.576 206.351 206.81 205.964C208.045 205.576 209.171 204.856 210.087 203.869C210.475 203.43 210.692 202.843 210.693 202.232C210.694 201.621 210.477 201.034 210.09 200.594L207.868 198.067" stroke="#1C186C" stroke-width="4.63957" stroke-linecap="round" stroke-linejoin="round"/>
<path d="M188.478 189.828C188.212 188.436 188.266 186.993 188.635 185.63C189.005 184.266 189.678 183.025 190.594 182.018C190.789 181.804 191.02 181.634 191.275 181.517C191.529 181.401 191.803 181.342 192.078 181.342C192.354 181.342 192.627 181.402 192.882 181.519C193.136 181.636 193.367 181.807 193.561 182.022L195.822 184.549" stroke="#1C186C" stroke-width="4.63957" stroke-linecap="round" stroke-linejoin="round"/>
<path d="M206.341 184.047C205.538 182.65 205.113 181.032 205.117 179.38C205.118 178.265 205.322 177.162 205.715 176.134C206.108 175.106 206.683 174.173 207.406 173.39C207.543 173.255 207.72 173.18 207.904 173.18C208.088 173.181 208.266 173.256 208.402 173.391C209.039 174.101 209.548 174.936 209.902 175.854C210.224 176.525 210.447 177.247 210.563 177.995C210.607 178.45 210.607 178.909 210.562 179.365C210.209 181.445 209.239 183.34 207.804 184.755C209.135 183.222 210.882 182.203 212.784 181.849C213.199 181.807 213.617 181.807 214.033 181.851C214.715 181.998 215.373 182.258 215.984 182.623C216.823 183.061 217.578 183.672 218.207 184.424C218.33 184.573 218.398 184.768 218.398 184.969C218.398 185.171 218.329 185.366 218.205 185.515C216.743 187.079 214.781 187.953 212.738 187.949C211.24 187.937 209.778 187.452 208.524 186.553" stroke="#1C186C" stroke-width="4.63957" stroke-linecap="round" stroke-linejoin="round"/>
<path d="M183.927 210.796C184.158 211.087 184.42 211.346 184.707 211.568C185.509 212.129 186.406 212.51 187.344 212.687C188.282 212.865 189.243 212.835 190.171 212.601C192.363 212.24 194.479 211.452 196.418 210.275C200.065 208.348 203.13 205.313 205.249 201.531C207.128 197.728 208.194 193.507 208.365 189.186C208.366 188.886 208.7 186.639 208.485 186.489L206.322 184.047C206.185 183.812 204.155 184.045 203.882 184.151C199.922 184.261 196.039 185.377 192.54 187.414C189.068 189.657 186.269 192.964 184.489 196.929C182.767 200.843 180.809 207.069 183.927 210.796Z" stroke="#1C186C" stroke-width="4.63957" stroke-linecap="round" stroke-linejoin="round"/>
<path d="M197.516 208.328C196.727 205.407 195.304 202.739 193.367 200.555C191.422 198.376 189.018 196.756 186.366 195.839" stroke="#1C186C" stroke-width="4.63957" stroke-linecap="round" stroke-linejoin="round"/>
<path d="M189.082 208.255C189.264 208.462 189.482 208.627 189.724 208.74C189.965 208.853 190.225 208.911 190.487 208.912C190.749 208.912 191.009 208.854 191.25 208.742C191.492 208.63 191.71 208.465 191.893 208.258C192.159 207.956 192.338 207.575 192.408 207.162C192.478 206.749 192.436 206.323 192.286 205.936C192.137 205.55 191.887 205.22 191.568 204.988C191.249 204.756 190.874 204.632 190.491 204.631C190.109 204.631 189.734 204.754 189.414 204.985C189.095 205.217 188.844 205.546 188.694 205.932C188.544 206.319 188.5 206.745 188.57 207.158C188.639 207.571 188.817 207.953 189.082 208.255Z" fill="#201D67"/>
<path d="M5.39062 195.023L-2.60451 170.81L-10.6517 195.006" stroke="#1C186C" stroke-width="4.63957" stroke-linecap="round" stroke-linejoin="round"/>
<path d="M-14.6728 196.093C-14.341 196.094 -14.0483 196.073 -13.775 196.03C-11.6278 195.647 -11.3332 193.893 -8.63994 193.896C-5.61493 193.899 -5.61729 196.103 -2.63132 196.106C0.393687 196.11 0.39606 193.905 3.38203 193.908C6.07527 193.911 6.34662 195.645 8.51248 196.054C8.76615 196.097 9.07838 196.119 9.41016 196.119" stroke="#1C186C" stroke-width="4.63957" stroke-linecap="round" stroke-linejoin="round"/>
<path d="M-12.667 199.391C-12.6658 198.235 -12.5084 197.079 -12.1755 196.031C-10.321 195.648 -10.085 193.893 -7.78206 193.896C-5.18641 193.899 -5.18878 196.103 -2.63216 196.106C-0.0365065 196.108 -0.0341383 193.904 2.52248 193.907C4.82539 193.909 5.07724 195.643 6.91132 196.052C7.22245 197.101 7.39686 198.257 7.39561 199.412C7.38908 205.49 2.89507 210.408 -2.64752 210.402C-8.19012 210.396 -12.6735 205.469 -12.667 199.391Z" stroke="#1C186C" stroke-width="4.63957" stroke-linecap="round" stroke-linejoin="round"/>
<path d="M-12.6603 192.799L7.40234 192.82" stroke="#1C186C" stroke-width="4.63957" stroke-linecap="round" stroke-linejoin="round"/>
<path d="M100.403 295.778L120.411 273.885C122.541 271.554 122.545 267.788 120.42 265.453C118.296 263.118 114.861 263.114 112.731 265.444L92.723 287.338C90.5932 289.668 90.5892 293.435 92.714 295.77C94.8387 298.105 98.2735 298.109 100.403 295.778Z" stroke="#1C186C" stroke-width="4.63957" stroke-linecap="round" stroke-linejoin="round"/>
<path d="M116.219 270.97C113.913 273.492 113.095 272.593 110.77 275.116C108.464 277.638 109.283 278.538 106.977 281.083C104.671 283.605 103.833 282.706 101.528 285.229C99.2219 287.751 100.041 288.673 97.735 291.195" stroke="#1C186C" stroke-width="4.63957" stroke-linecap="round" stroke-linejoin="round"/>
<path d="M107.31 298.311L122.706 281.463C125.266 278.662 125.271 274.146 122.717 271.34L98.0979 298.279C100.632 301.107 104.769 301.112 107.31 298.311Z" stroke="#1C186C" stroke-width="4.63957" stroke-linecap="round" stroke-linejoin="round"/>
<path d="M105.825 262.912L90.4283 279.759C87.8687 282.56 87.8638 287.076 90.4174 289.882L115.037 262.943C112.503 260.115 108.365 260.111 105.825 262.912Z" stroke="#1C186C" stroke-width="4.63957" stroke-linecap="round" stroke-linejoin="round"/>
<path d="M376.29 60.1633C380.178 56.4008 385.469 54.1166 391.304 54.1656C397.101 54.2147 402.387 56.5531 406.325 60.3668" stroke="#1C186C" stroke-width="4.63957" stroke-linecap="round" stroke-linejoin="round"/>
<path d="M405.397 51.5271C401.204 48.7404 396.385 47.1515 391.272 47.1032C385.281 47.0539 379.717 49.1453 375.087 52.7786C373.212 54.2533 372.682 57.1419 373.89 59.369L375.156 61.7031L380.395 71.211C380.395 71.211 384.116 77.9779 387.622 84.3593C389.316 87.4429 393.259 87.49 394.94 84.4527L407.455 61.909L408.687 59.6846C409.899 57.4815 409.356 54.5489 407.445 53.0488C406.801 52.4917 406.099 51.9987 405.397 51.5271Z" stroke="#1C186C" stroke-width="4.63957" stroke-linecap="round" stroke-linejoin="round"/>
<path d="M398.26 64.6192C398.728 64.8337 399.255 64.8343 399.724 64.6208C399.978 64.514 400.173 64.3645 400.368 64.1721C400.72 63.7658 400.935 63.231 400.936 62.6746C400.936 62.0967 400.742 61.5829 400.371 61.1759C400.001 60.7688 399.533 60.5543 399.006 60.5537C398.479 60.5532 398.01 60.7667 397.639 61.1729C397.268 61.5792 397.072 62.114 397.072 62.6704C397.071 63.2269 397.285 63.7621 397.636 64.1691C397.811 64.3833 398.026 64.5334 398.26 64.6192Z" fill="#201D67"/>
<path d="M390.573 62.5123C391.041 62.7268 391.568 62.7274 392.036 62.5138C392.271 62.4071 392.485 62.2575 392.681 62.0651C393.033 61.6589 393.248 61.124 393.248 60.5676C393.249 59.9898 393.054 59.4759 392.684 59.0689C392.314 58.6619 391.845 58.4474 391.319 58.4468C390.792 58.4462 390.323 58.6597 389.952 59.066C389.58 59.4722 389.385 59.9856 389.384 60.5635C389.384 61.1199 389.598 61.6552 389.949 62.0622C390.124 62.255 390.319 62.405 390.573 62.5123Z" fill="#201D67"/>
<path d="M382.218 64.1742C382.939 64.9668 384.227 64.9682 384.95 64.1771C385.302 63.7709 385.517 63.2361 385.518 62.6796C385.518 62.1018 385.324 61.5879 384.954 61.1809C384.583 60.7739 384.115 60.5593 383.588 60.5588C383.334 60.5585 383.081 60.6224 382.866 60.7292C382.631 60.836 382.417 60.9856 382.221 61.178C381.85 61.5842 381.654 62.0976 381.654 62.6755C381.673 63.2105 381.887 63.7672 382.218 64.1742Z" fill="#201D67"/>
<path d="M385.663 71.9236C385.761 72.2019 385.897 72.416 386.073 72.6302C386.794 73.4229 388.082 73.4242 388.805 72.6332C388.981 72.4193 389.118 72.2055 389.215 71.9274C389.313 71.6707 389.372 71.3925 389.372 71.1357C389.373 70.8575 389.314 70.5792 389.217 70.3437C389.12 70.0867 388.983 69.8512 388.808 69.637C388.438 69.2299 387.969 69.0154 387.443 69.0149C387.189 69.0146 386.935 69.0785 386.72 69.1853C386.486 69.2921 386.271 69.4416 386.076 69.634C385.704 70.0403 385.509 70.5537 385.508 71.1315C385.508 71.3883 385.566 71.6666 385.663 71.9236Z" fill="#201D67"/>
<path d="M393.373 71.9319C393.471 72.1888 393.607 72.4243 393.782 72.6385C394.523 73.4312 395.811 73.4326 396.515 72.6415C396.691 72.4276 396.827 72.2138 396.925 71.9357C397.023 71.679 397.082 71.4008 397.082 71.144C397.083 70.5661 396.888 70.0523 396.518 69.6453C396.323 69.4524 396.109 69.3024 395.874 69.1952C395.64 69.0879 395.387 69.0234 395.133 69.0231C394.606 69.0226 394.137 69.2361 393.766 69.6423C393.59 69.8561 393.453 70.0914 393.356 70.3481C393.238 70.6048 393.199 70.883 393.199 71.1398C393.218 71.3966 393.257 71.6749 393.373 71.9319Z" fill="#201D67"/>
<path d="M392.644 78.0744C392.274 77.6674 391.805 77.4528 391.279 77.4523C391.025 77.452 390.771 77.5159 390.556 77.6227C390.322 77.7295 390.107 77.8791 389.912 78.0715C389.736 78.2853 389.599 78.5206 389.501 78.7773C389.403 79.034 389.344 79.3121 389.344 79.5689C389.344 80.1468 389.558 80.6606 389.909 81.0677C390.454 81.6461 391.293 81.861 392.016 81.5194C392.27 81.4126 392.465 81.263 392.66 81.0706C393.012 80.6644 393.227 80.1296 393.228 79.5731C393.228 79.2949 393.17 79.0166 393.073 78.7811C392.956 78.5242 392.819 78.2886 392.644 78.0744Z" fill="#201D67"/>
<path d="M296.889 27.4298C298.142 27.7365 299.445 27.6941 300.68 27.3067C301.914 26.9192 303.04 26.199 303.956 25.2116C304.344 24.773 304.561 24.1861 304.562 23.5751C304.563 22.964 304.347 22.3767 303.96 21.9372L301.737 19.4094" stroke="#1C186C" stroke-width="4.63957" stroke-linecap="round" stroke-linejoin="round"/>
<path d="M282.347 11.1709C282.081 9.77908 282.135 8.33623 282.504 6.97278C282.874 5.60933 283.547 4.36825 284.464 3.36167C284.658 3.14705 284.889 2.97678 285.144 2.86068C285.399 2.74458 285.672 2.68496 285.948 2.68525C286.223 2.68555 286.496 2.74576 286.751 2.8624C287.005 2.97905 287.236 3.14982 287.43 3.36486L289.691 5.89267" stroke="#1C186C" stroke-width="4.63957" stroke-linecap="round" stroke-linejoin="round"/>
<path d="M300.21 5.39031C299.407 3.99354 298.982 2.37501 298.986 0.72346C298.987 -0.391309 299.191 -1.49469 299.584 -2.52285C299.977 -3.55101 300.552 -4.48354 301.276 -5.2665C301.412 -5.4017 301.59 -5.47646 301.773 -5.47627C301.957 -5.47607 302.135 -5.40093 302.271 -5.26543C302.908 -4.55596 303.418 -3.72025 303.771 -2.80265C304.093 -2.13174 304.316 -1.40919 304.432 -0.661783C304.476 -0.206477 304.476 0.252699 304.431 0.70791C304.078 2.78849 303.109 4.68326 301.673 6.09813C303.004 4.5658 304.751 3.54663 306.653 3.19288C307.068 3.15 307.487 3.15045 307.902 3.19422C308.584 3.341 309.242 3.60154 309.853 3.96677C310.692 4.40471 311.447 5.01588 312.076 5.76689C312.199 5.91656 312.267 6.11113 312.267 6.31283C312.267 6.51453 312.198 6.70895 312.075 6.85836C310.613 8.42264 308.65 9.29641 306.607 9.29226C305.11 9.28002 303.647 8.79555 302.393 7.89663" stroke="#1C186C" stroke-width="4.63957" stroke-linecap="round" stroke-linejoin="round"/>
<path d="M277.796 32.1389C278.027 32.4292 278.289 32.6882 278.576 32.9101C279.379 33.4719 280.275 33.8526 281.213 34.03C282.151 34.2073 283.112 34.1779 284.04 33.9433C286.232 33.5824 288.348 32.7947 290.287 31.6172C293.934 29.6908 296.999 26.6558 299.118 22.8735C300.997 19.0707 302.063 14.8491 302.234 10.5282C302.235 10.2286 302.569 7.98177 302.354 7.83173L300.191 5.38963C300.054 5.15407 298.024 5.38731 297.751 5.49402C293.791 5.60321 289.908 6.71999 286.409 8.75626C282.937 10.9997 280.138 14.307 278.358 18.2713C276.636 22.1859 274.678 28.4116 277.796 32.1389Z" stroke="#1C186C" stroke-width="4.63957" stroke-linecap="round" stroke-linejoin="round"/>
<path d="M291.383 29.6708C290.594 26.7494 289.171 24.0819 287.234 21.8976C285.289 19.7186 282.885 18.0988 280.233 17.1817" stroke="#1C186C" stroke-width="4.63957" stroke-linecap="round" stroke-linejoin="round"/>
<path d="M282.952 29.5973C283.133 29.8046 283.351 29.9696 283.593 30.0824C283.834 30.1952 284.094 30.2535 284.356 30.2538C284.618 30.254 284.878 30.1963 285.12 30.0841C285.361 29.9718 285.58 29.8073 285.762 29.6003C286.028 29.2983 286.207 28.9171 286.277 28.5042C286.347 28.0913 286.305 27.665 286.155 27.2784C286.006 26.8918 285.756 26.5619 285.437 26.3299C285.118 26.0978 284.744 25.9739 284.361 25.9735C283.978 25.9731 283.603 26.0962 283.283 26.3275C282.964 26.5589 282.713 26.8882 282.563 27.2745C282.413 27.6608 282.37 28.087 282.439 28.5001C282.508 28.9131 282.686 29.2947 282.952 29.5973Z" fill="#201D67"/>
<path d="M99.2529 23.5139L91.2578 -0.699783L83.2106 23.4967" stroke="#1C186C" stroke-width="4.63957" stroke-linecap="round" stroke-linejoin="round"/>
<path d="M79.1876 24.5843C79.5193 24.5847 79.8121 24.5636 80.0854 24.5211C82.2326 24.1382 82.5272 22.3836 85.2204 22.3865C88.2454 22.3897 88.2431 24.5941 91.229 24.5973C94.254 24.6005 94.2564 22.3962 97.2424 22.3994C99.9356 22.4023 100.207 24.1361 102.373 24.5451C102.626 24.5881 102.939 24.6099 103.271 24.6102" stroke="#1C186C" stroke-width="4.63957" stroke-linecap="round" stroke-linejoin="round"/>
<path d="M81.1933 27.8824C81.1946 26.7267 81.352 25.5712 81.6849 24.5229C83.5393 24.1396 83.7754 22.385 86.0783 22.3874C88.6739 22.3902 88.6716 24.5946 91.2282 24.5973C93.8238 24.6001 93.8262 22.3958 96.3828 22.3985C98.6857 22.401 98.9376 24.1348 100.772 24.5434C101.083 25.5924 101.257 26.7483 101.256 27.9039C101.249 33.982 96.7554 38.8995 91.2128 38.8935C85.6702 38.8876 81.1868 33.9604 81.1933 27.8824Z" stroke="#1C186C" stroke-width="4.63957" stroke-linecap="round" stroke-linejoin="round"/>
<path d="M81.201 21.2913L101.264 21.3129" stroke="#1C186C" stroke-width="4.63957" stroke-linecap="round" stroke-linejoin="round"/>
<path d="M-23.9836 87.8548L11.1455 87.8926C11.1493 84.3399 8.53724 81.4693 5.29756 81.4658L-18.1219 81.4407C-21.3615 81.4372 -23.9798 84.3022 -23.9836 87.8548Z" stroke="#1C186C" stroke-width="4.63957" stroke-linecap="round" stroke-linejoin="round"/>
<path d="M-6.44009 107.135C2.18606 107.144 9.18109 99.4901 9.19125 90.0307L9.19355 87.8905L-22.0323 87.857L-22.0346 89.9971C-22.0448 99.4566 -15.0662 107.126 -6.44009 107.135Z" stroke="#1C186C" stroke-width="4.63957" stroke-linecap="round" stroke-linejoin="round"/>
<path d="M120.369 165.527C114.964 165.158 109.56 162.562 105.291 157.807C101.061 153.094 98.7455 147.099 98.4007 141.106" stroke="#1C186C" stroke-width="4.63957" stroke-linecap="round" stroke-linejoin="round"/>
<path d="M96.1797 139.713L98.5809 139.073L122.944 132.572C126.224 131.698 129.089 134.911 128.266 138.549L126.54 146.252L126.422 146.744L124.912 153.441L124.775 154.083L122.226 165.316L121.598 168.054C121.01 170.686 118.686 172.374 116.305 171.944C110.452 170.889 104.951 167.929 100.565 163.045C96.1989 158.204 93.5708 152.102 92.6214 145.616C92.234 142.962 93.7981 140.352 96.1797 139.713Z" stroke="#1C186C" stroke-width="4.63957" stroke-linecap="round" stroke-linejoin="round"/>
<path d="M110.887 146.576C109.162 146.574 107.763 148.125 107.76 150.039C107.758 151.954 109.155 153.508 110.879 153.51C112.604 153.512 114.004 151.961 114.006 150.046C114.008 148.131 112.611 146.578 110.887 146.576Z" stroke="#1C186C" stroke-width="4.63957" stroke-linecap="round" stroke-linejoin="round"/>
<path d="M122.438 147.895C123.513 146.698 125.055 146.314 126.421 146.786L124.46 155.516C123.718 155.323 123.016 154.937 122.431 154.294C120.833 152.516 120.836 149.648 122.438 147.895Z" stroke="#1C186C" stroke-width="4.63957" stroke-linecap="round" stroke-linejoin="round"/>
<path d="M119.993 135.692C120.284 136.934 119.99 138.303 119.13 139.265C117.821 140.719 115.713 140.717 114.407 139.26C113.978 138.789 113.686 138.211 113.55 137.59" stroke="#1C186C" stroke-width="4.63957" stroke-linecap="round" stroke-linejoin="round"/>
<path d="M194.305 86.1434L214.313 64.2497C216.443 61.9193 216.447 58.1526 214.322 55.8175C212.197 53.4825 208.762 53.4788 206.632 55.8093L186.624 77.7029C184.495 80.0334 184.491 83.8001 186.615 86.1351C188.74 88.4702 192.175 88.4738 194.305 86.1434Z" stroke="#1C186C" stroke-width="4.63957" stroke-linecap="round" stroke-linejoin="round"/>
<path d="M210.12 61.3345C207.815 63.8574 206.996 62.9577 204.671 65.4806C202.365 68.0035 203.184 68.9032 200.878 71.4475C198.573 73.9704 197.735 73.0706 195.429 75.5935C193.123 78.1164 193.942 79.0376 191.636 81.5605" stroke="#1C186C" stroke-width="4.63957" stroke-linecap="round" stroke-linejoin="round"/>
<path d="M201.211 88.6768L216.608 71.829C219.167 69.0281 219.172 64.5124 216.619 61.706L191.999 88.6455C194.533 91.4732 198.671 91.4777 201.211 88.6768Z" stroke="#1C186C" stroke-width="4.63957" stroke-linecap="round" stroke-linejoin="round"/>
<path d="M199.728 53.2769L184.331 70.1247C181.771 72.9256 181.766 77.4413 184.32 80.2476L208.939 53.3082C206.405 50.4804 202.268 50.476 199.728 53.2769Z" stroke="#1C186C" stroke-width="4.63957" stroke-linecap="round" stroke-linejoin="round"/>
<path d="M297.981 134.814L317.497 134.835C320.971 134.838 323.778 137.923 323.774 141.733L323.77 145.842L291.685 145.807L291.689 141.698C291.693 137.889 294.507 134.81 297.981 134.814Z" stroke="#1C186C" stroke-width="4.63957" stroke-linecap="round" stroke-linejoin="round"/>
<path d="M292.674 152.401L322.768 152.433C324.427 152.435 325.775 150.96 325.777 149.141C325.779 147.321 324.434 145.843 322.775 145.842L292.681 145.809C291.022 145.807 289.674 147.283 289.672 149.102C289.67 150.921 291.015 152.399 292.674 152.401Z" stroke="#1C186C" stroke-width="4.63957" stroke-linecap="round" stroke-linejoin="round"/>
<path d="M306.667 170.007L308.736 170.01C317.031 170.018 323.752 162.664 323.762 153.568L323.763 152.434L291.678 152.399L291.677 153.533C291.667 162.629 298.373 169.998 306.667 170.007Z" stroke="#1C186C" stroke-width="4.63957" stroke-linecap="round" stroke-linejoin="round"/>
<path d="M323.986 145.307C323.226 144.408 322.681 143.187 321.256 143.186C319.832 143.184 319.284 144.403 318.522 145.301" stroke="#1C186C" stroke-width="4.63957" stroke-linecap="round" stroke-linejoin="round"/>
<path d="M305.66 145.288C304.9 144.388 304.355 143.167 302.93 143.166C301.486 143.164 300.938 144.384 300.176 145.282" stroke="#1C186C" stroke-width="4.63957" stroke-linecap="round" stroke-linejoin="round"/>
<path d="M293.738 143.178C295.162 143.179 295.708 144.4 296.468 145.299" stroke="#1C186C" stroke-width="4.63957" stroke-linecap="round" stroke-linejoin="round"/>
<path d="M314.813 145.297C314.053 144.398 313.508 143.177 312.083 143.176C310.659 143.174 310.111 144.394 309.349 145.292" stroke="#1C186C" stroke-width="4.63957" stroke-linecap="round" stroke-linejoin="round"/>
</g>
</g>
</svg>
