<svg width="25" height="26" viewBox="0 0 25 26" fill="none" xmlns="http://www.w3.org/2000/svg">
<g clip-path="url(#clip0_1_8979)">
<path d="M0.81543 15.0579V17.8152H22.6685C23.2828 17.8152 23.7515 15.0093 23.7515 15.0093L0.81543 15.0579Z" fill="#F2C05A"/>
<path d="M0.816413 18.4904C0.437684 18.4904 0.140625 18.194 0.140625 17.8159V15.0583C0.140625 14.6865 0.443774 14.3841 0.816413 14.3841L23.7688 14.3354C23.9596 14.3354 24.157 14.4258 24.2716 14.5655C24.4034 14.7232 24.454 14.9149 24.4155 15.1066C23.8555 18.4904 23.0058 18.4904 22.6861 18.4904H0.816413ZM22.4807 17.1577L22.5261 17.0668C22.6285 16.8624 22.7467 16.4998 22.9095 15.8908L22.9649 15.6839L1.50853 15.733V17.1577H1.67298H22.4807Z" fill="#4C2F1B"/>
<path d="M17.8675 1.41303C17.3988 1.17107 16.8169 1.2357 16.429 1.59063L0.831055 15.0559H3.74074V22.8125C3.74074 23.7318 4.48407 24.4734 5.40543 24.4734C6.32678 24.4734 7.07012 23.7318 7.07012 22.8125V15.0559H8.79959V18.7164C8.79959 19.6517 9.57532 20.4259 10.513 20.4259C11.4504 20.4259 12.2264 19.6519 12.2264 18.7164V15.0559H14.6995C14.942 15.9751 15.7665 16.6524 16.7523 16.6524C17.7385 16.6524 18.5787 15.9751 18.8052 15.0559L23.7835 15.0399C25.351 6.12204 19.9848 2.47752 17.8675 1.41303Z" fill="#FFDE8A"/>
<path d="M12.7284 7.28403C13.6818 7.28403 14.4416 6.52621 14.4416 5.57479C14.4416 4.91363 14.0699 4.36542 13.5365 4.07544L11.1284 6.1553C11.3709 6.81646 11.9849 7.28403 12.7284 7.28403Z" fill="#FF5C5C"/>
<path d="M12.7289 7.62291C11.8721 7.62291 11.0965 7.0747 10.8055 6.26855C10.7571 6.13958 10.7892 5.99459 10.9024 5.89793L13.3104 3.81779C13.4073 3.72113 13.569 3.70483 13.6819 3.76946C14.3607 4.12434 14.7648 4.81754 14.7648 5.55934C14.7815 6.7038 13.8602 7.62291 12.7289 7.62291ZM11.5327 6.25254C11.7752 6.68806 12.2278 6.96203 12.7289 6.96203C13.4884 6.96203 14.1027 6.34947 14.1027 5.59138C14.1027 5.15613 13.8926 4.75291 13.5529 4.49497L11.5327 6.25254Z" fill="#4C2F1B"/>
<path d="M18.4022 8.75069C18.2082 9.57313 18.7416 10.4116 19.5657 10.5889C20.1476 10.7179 20.7131 10.5083 21.0688 10.089L19.7113 7.55762C19.081 7.63826 18.5476 8.08953 18.4022 8.75069Z" fill="#FF5C5C"/>
<path d="M19.9045 10.9632C19.7753 10.9632 19.6299 10.9472 19.5007 10.9149C18.4986 10.6893 17.8522 9.6895 18.0784 8.67374C18.2561 7.91592 18.8864 7.3354 19.6784 7.23874C19.8076 7.22272 19.9532 7.28707 20.0177 7.41604L21.3753 9.93143C21.44 10.0604 21.4237 10.2054 21.3268 10.3023C20.9551 10.7213 20.438 10.9632 19.9045 10.9632ZM18.7247 8.81873C18.66 9.1413 18.7087 9.46359 18.8861 9.72154C19.0641 9.9955 19.3227 10.1891 19.6457 10.2537C20.0014 10.3344 20.3729 10.2377 20.6638 10.0118L19.5488 7.93193C19.1289 8.07693 18.8216 8.39922 18.7247 8.81873Z" fill="#4C2F1B"/>
<path d="M5.38973 25.1342C4.09907 25.1342 3.0487 24.0866 3.0487 22.7986V15.7165H0.815364C0.527442 15.7165 0.284092 15.5455 0.1955 15.2806C0.0891905 15.0141 0.167262 14.7202 0.386526 14.5398L15.9875 1.07207C16.3491 0.76438 16.8075 0.594238 17.2779 0.594238C17.5877 0.594238 17.8864 0.664947 18.166 0.804706C20.0602 1.75734 26.111 5.60487 24.43 15.1105C24.3788 15.4295 24.0942 15.6681 23.7675 15.6681L19.2543 15.6847L19.2086 15.7731C18.7272 16.7031 17.7798 17.2809 16.7364 17.2809C15.6932 17.2809 14.7458 16.7033 14.2641 15.7731L14.2179 15.6841H12.8865V18.6705C12.8865 19.9761 11.822 21.0381 10.5134 21.0381C9.20471 21.0381 8.1405 19.9761 8.1405 18.6707V15.6844H7.74655V22.7666C7.7316 24.0714 6.67431 25.1342 5.38973 25.1342ZM17.2613 1.94405C17.109 1.94405 16.9681 1.99763 16.8535 2.09928L2.62042 14.384H3.72477C3.91219 14.384 4.07553 14.4506 4.18434 14.5716C4.3175 14.7047 4.3845 14.871 4.3845 15.0585V22.8152C4.3845 23.3682 4.83548 23.8181 5.38946 23.8181C5.95312 23.8181 6.39442 23.3775 6.39442 22.8152V15.0583C6.39442 14.6865 6.69757 14.384 7.07021 14.384H8.79968C8.98683 14.384 9.15017 14.4506 9.25925 14.5716C9.39241 14.7047 9.45941 14.871 9.45941 15.0585V18.7191C9.45941 19.2897 9.92479 19.754 10.4968 19.754C11.0687 19.754 11.5341 19.2897 11.5341 18.7191V15.0422C11.5341 14.6702 11.8373 14.3677 12.2099 14.3677H14.683C14.992 14.3677 15.2527 14.5713 15.3319 14.874C15.4972 15.5159 16.0747 15.9645 16.7358 15.9645C17.3969 15.9645 17.9744 15.5159 18.1397 14.8738C18.2189 14.5716 18.4797 14.368 18.7884 14.368L23.1989 14.3514L23.2185 14.2106C24.3195 6.34703 19.6245 3.05964 17.5547 2.01117C17.4545 1.9656 17.3579 1.94405 17.2613 1.94405Z" fill="#4C2F1B"/>
<path d="M23.7683 15.0088C25.385 5.9288 19.7593 2.33215 17.7386 1.34846C17.3343 1.15482 16.8492 1.21946 16.5098 1.50978L15.2812 2.57441C17.9648 4.57412 22.475 8.26773 21.1008 15.0254L23.7683 15.0088Z" fill="#FFB07B"/>
<path d="M21.1043 15.6847C20.908 15.6847 20.7134 15.5921 20.5844 15.4372C20.4556 15.2833 20.4022 15.0756 20.4412 14.8808C21.6246 9.04385 18.2868 5.65245 14.8659 3.10496C14.7042 2.99309 14.6061 2.80359 14.592 2.58121C14.5796 2.38066 14.664 2.18923 14.8241 2.05636L16.0551 0.989515C16.3837 0.706369 16.7993 0.550293 17.2252 0.550293C17.496 0.550293 17.766 0.615209 18.0066 0.73786C19.9414 1.67929 26.1121 5.49472 24.4018 15.1267C24.3505 15.446 24.0659 15.6847 23.7395 15.6847H21.1043ZM17.2346 1.90028C17.123 1.90028 17.0134 1.94061 16.9251 2.01409L16.3375 2.5348L16.4926 2.65607C18.0431 3.87098 22.7618 7.56818 21.9109 14.1504L21.8871 14.3355H23.1876L23.2073 14.1941C24.3289 6.17952 19.5372 2.95717 17.4251 1.94365C17.3689 1.91575 17.3024 1.90028 17.2346 1.90028Z" fill="#4C2F1B"/>
<path d="M21.1015 15.0093C21.1015 15.0093 20.9559 16.7829 20.3096 17.8149H22.6852C22.6852 17.8149 23.5256 17.3634 23.7681 15.0093H21.1015Z" fill="#E2803D"/>
<path d="M20.3085 18.4883C20.0596 18.4883 19.8422 18.3582 19.7265 18.1402C19.6055 17.9251 19.6102 17.6679 19.7367 17.4654C20.2021 16.709 20.3938 15.3662 20.4242 14.9552C20.4494 14.6151 20.7396 14.3491 21.0846 14.3491H23.7518C23.9498 14.3491 24.127 14.427 24.2388 14.5632C24.3798 14.7182 24.4382 14.8955 24.413 15.0825C24.1389 17.6742 23.1709 18.3096 22.9796 18.4107C22.902 18.4612 22.7921 18.4883 22.6847 18.4883H20.3085ZM21.6826 15.814C21.6187 16.1334 21.5389 16.5309 21.4121 16.943L21.3468 17.1554H22.4311L22.4804 17.0853C22.5917 16.9264 22.8021 16.559 22.9585 15.8831L23.005 15.682H21.7092L21.6826 15.814Z" fill="#4C2F1B"/>
<path d="M8.26904 11.6392C8.26904 12.2534 8.76798 12.7512 9.3837 12.7512C9.99941 12.7512 10.4984 12.2534 10.4984 11.6392C10.4984 11.0249 9.99941 10.5271 9.3837 10.5271C8.76798 10.5271 8.26904 11.0249 8.26904 11.6392Z" fill="#FF5C5C"/>
<path d="M9.38242 13.0915C8.59071 13.0915 7.92822 12.4469 7.92822 11.641C7.92822 10.8351 8.57438 10.1902 9.38242 10.1902C10.1902 10.1902 10.8363 10.8348 10.8363 11.641C10.8363 12.4466 10.1902 13.0915 9.38242 13.0915ZM9.38242 10.8671C8.9463 10.8671 8.60703 11.2219 8.60703 11.6407C8.60703 12.0598 8.96235 12.4143 9.38242 12.4143C9.80249 12.4143 10.1578 12.0595 10.1578 11.6407C10.1578 11.2216 9.81854 10.8671 9.38242 10.8671Z" fill="#4C2F1B"/>
<path d="M14.8757 12.7508H12.5329C12.4037 12.7508 12.2905 12.6379 12.2905 12.509V11.977C12.2905 11.848 12.4037 11.7351 12.5329 11.7351H14.8757C15.0049 11.7351 15.1181 11.848 15.1181 11.977V12.509C15.1342 12.6379 15.021 12.7508 14.8757 12.7508Z" fill="#3DE25C"/>
<path d="M14.6188 13.0888H12.8087C12.34 13.0888 11.9683 12.7179 11.9683 12.2503C11.9683 11.7828 12.34 11.4119 12.8087 11.4119H14.6188C15.0874 11.4119 15.4592 11.7828 15.4592 12.2503C15.4592 12.7179 15.0874 13.0888 14.6188 13.0888ZM12.8087 12.0727C12.7118 12.0727 12.631 12.1534 12.631 12.2501C12.631 12.347 12.7118 12.4276 12.8087 12.4276H14.6188C14.7157 12.4276 14.7965 12.347 14.7965 12.2501C14.7965 12.1534 14.7157 12.0727 14.6188 12.0727H12.8087Z" fill="#4C2F1B"/>
<path d="M16.4924 10.3146L15.2482 8.96065C15.1998 8.91233 15.1998 8.83172 15.2482 8.7834L15.8136 8.26768C15.862 8.21937 15.9428 8.21937 15.9915 8.26768L17.2357 9.62159C17.2841 9.66991 17.2841 9.75052 17.2357 9.79884L16.6703 10.3146C16.6377 10.3631 16.5408 10.3631 16.4924 10.3146Z" fill="#3DE25C"/>
<path d="M16.6097 10.6367H16.5776C16.416 10.6367 16.2704 10.5561 16.1575 10.4432L15.0913 9.29884C14.9781 9.18592 14.9297 9.02496 14.9297 8.86373C14.9297 8.70277 15.0105 8.55755 15.1237 8.44464L15.479 8.12217C15.5922 8.00925 15.7538 7.96094 15.9154 7.96094C16.077 7.96094 16.2223 8.04155 16.3355 8.15447L17.4017 9.29884C17.5149 9.41175 17.5633 9.57299 17.5633 9.73422C17.5633 9.89545 17.4825 10.0404 17.3693 10.1533L17.014 10.4758C16.9005 10.5721 16.755 10.6367 16.6097 10.6367ZM15.6403 8.87974L16.6097 9.92748L16.8682 9.68563L15.8988 8.63789L15.6403 8.87974Z" fill="#4C2F1B"/>
</g>
<defs>
<clipPath id="clip0_1_8979">
<rect width="24.5822" height="24.5822" fill="white" transform="translate(0.141113 0.550293)"/>
</clipPath>
</defs>
</svg>
